<svg width="960" height="958" viewBox="0 0 960 958" fill="none" xmlns="http://www.w3.org/2000/svg">
<g clip-path="url(#clip0_218_1822)">
<path d="M480.341 957.435C745.247 957.435 959.995 743.106 959.995 478.717C959.995 214.329 745.247 0 480.341 0C215.435 0 0.686523 214.329 0.686523 478.717C0.686523 743.106 215.435 957.435 480.341 957.435Z" fill="#DCE4FF"/>
<path d="M553.349 760.547H541.196C541.058 760.547 540.924 760.492 540.826 760.394C540.728 760.296 540.673 760.163 540.673 760.024V551.766C540.673 551.627 540.728 551.494 540.826 551.396C540.924 551.298 541.058 551.243 541.196 551.243H553.349C553.488 551.243 553.621 551.298 553.719 551.396C553.817 551.494 553.872 551.627 553.872 551.766V760.013C553.874 760.083 553.861 760.152 553.836 760.217C553.81 760.282 553.772 760.341 553.723 760.39C553.674 760.44 553.616 760.48 553.552 760.507C553.487 760.534 553.418 760.547 553.349 760.547ZM541.72 759.5H552.825V552.29H541.72V759.5Z" fill="#BAC8FF"/>
<path d="M927.68 760.547H915.532C915.394 760.547 915.26 760.492 915.162 760.394C915.064 760.296 915.009 760.163 915.009 760.024V551.766C915.009 551.627 915.064 551.494 915.162 551.396C915.26 551.298 915.394 551.243 915.532 551.243H927.68C927.818 551.243 927.952 551.298 928.05 551.396C928.148 551.494 928.203 551.627 928.203 551.766V760.013C928.205 760.083 928.192 760.152 928.166 760.217C928.141 760.282 928.102 760.341 928.053 760.39C928.005 760.44 927.947 760.48 927.882 760.507C927.818 760.534 927.749 760.547 927.68 760.547ZM916.056 759.5H927.156V552.29H916.056V759.5Z" fill="#BAC8FF"/>
<path d="M949.088 541.94H522.106V569.706H949.088V541.94Z" fill="#BAC8FF"/>
<path d="M565.574 505.761H759.41V368.333H565.574V505.761Z" fill="#BAC8FF"/>
<path d="M642.091 508.677H647.85C647.85 509.7 648.052 510.714 648.444 511.659C648.836 512.605 649.41 513.464 650.134 514.187C650.858 514.91 651.717 515.484 652.663 515.875C653.609 516.266 654.623 516.467 655.646 516.467H669.385C671.452 516.467 673.434 515.646 674.896 514.185C676.358 512.725 677.18 510.743 677.181 508.677H682.941L688.7 539.166V541.715H636.415V539.166L642.091 508.677Z" fill="#BAC8FF"/>
<path d="M954.553 702.53L827.515 703.572L828.259 794.296L955.297 793.255L954.553 702.53Z" fill="#98ABFF"/>
<path d="M879.389 713.527C876.518 713.524 873.765 712.389 871.726 710.368C869.688 708.346 868.53 705.602 868.504 702.732L868.425 693.184C868.412 691.753 868.681 690.334 869.216 689.007C869.752 687.68 870.544 686.472 871.546 685.451C872.549 684.43 873.742 683.617 875.059 683.057C876.376 682.498 877.791 682.203 879.222 682.19L900.882 682.012H900.971C903.841 682.015 906.593 683.15 908.63 685.17C910.668 687.19 911.825 689.933 911.851 692.801L911.93 702.355C911.944 703.786 911.677 705.205 911.142 706.532C910.607 707.859 909.816 709.068 908.814 710.089C907.812 711.11 906.618 711.924 905.301 712.483C903.984 713.042 902.57 713.336 901.139 713.349L879.478 713.527H879.389ZM900.971 683.085H900.887L879.227 683.263C876.62 683.287 874.129 684.343 872.3 686.201C870.471 688.059 869.454 690.567 869.472 693.173L869.551 702.727C869.577 705.32 870.625 707.798 872.466 709.624C874.308 711.45 876.796 712.476 879.389 712.48H879.468L901.128 712.302C902.42 712.291 903.697 712.027 904.886 711.523C906.076 711.019 907.154 710.286 908.06 709.365C908.966 708.444 909.682 707.354 910.166 706.157C910.65 704.959 910.894 703.678 910.883 702.387L910.804 692.833C910.772 690.245 909.723 687.773 907.883 685.953C906.043 684.133 903.56 683.11 900.971 683.106V683.085Z" fill="#BAC8FF"/>
<path d="M891.212 754.726C891.097 754.727 890.985 754.69 890.893 754.621L834.707 712.218C834.651 712.177 834.604 712.125 834.569 712.065C834.533 712.006 834.51 711.94 834.5 711.871C834.491 711.802 834.495 711.732 834.512 711.665C834.53 711.598 834.56 711.535 834.602 711.48C834.686 711.37 834.811 711.297 834.948 711.279C835.086 711.26 835.225 711.297 835.335 711.38L891.202 753.569L945.785 710.438C945.894 710.352 946.033 710.313 946.171 710.329C946.309 710.345 946.435 710.416 946.521 710.525C946.607 710.634 946.646 710.772 946.63 710.91C946.614 711.048 946.543 711.174 946.434 711.26L891.537 754.637C891.441 754.702 891.327 754.733 891.212 754.726Z" fill="#BAC8FF"/>
<path d="M900.348 748.379L882.447 748.526L882.525 757.969L900.425 757.823L900.348 748.379Z" fill="#BAC8FF"/>
<path d="M935.209 431.498H788.705V459.981H935.209V431.498Z" fill="#98ABFF"/>
<path d="M910.019 455.369C914.515 455.369 918.16 451.725 918.16 447.229C918.16 442.733 914.515 439.089 910.019 439.089C905.522 439.089 901.877 442.733 901.877 447.229C901.877 451.725 905.522 455.369 910.019 455.369Z" fill="#BAC8FF"/>
<path d="M911.694 374.531H765.19V403.014H911.694V374.531Z" fill="#98ABFF"/>
<path d="M886.505 398.402C891.002 398.402 894.647 394.758 894.647 390.262C894.647 385.766 891.002 382.122 886.505 382.122C882.008 382.122 878.363 385.766 878.363 390.262C878.363 394.758 882.008 398.402 886.505 398.402Z" fill="#BAC8FF"/>
<path d="M931.225 512.881H784.721V541.364H931.225V512.881Z" fill="#98ABFF"/>
<path d="M906.029 536.752C910.526 536.752 914.171 533.108 914.171 528.612C914.171 524.116 910.526 520.471 906.029 520.471C901.533 520.471 897.888 524.116 897.888 528.612C897.888 533.108 901.533 536.752 906.029 536.752Z" fill="#BAC8FF"/>
<path d="M923.004 487.633H776.474C776.335 487.633 776.202 487.577 776.104 487.479C776.005 487.381 775.95 487.248 775.95 487.109V458.626C775.95 458.487 776.005 458.354 776.104 458.255C776.202 458.157 776.335 458.102 776.474 458.102H922.983C923.122 458.102 923.255 458.157 923.353 458.255C923.451 458.354 923.506 458.487 923.506 458.626V487.109C923.506 487.244 923.454 487.374 923.36 487.472C923.267 487.57 923.139 487.627 923.004 487.633ZM777.018 486.586H922.48V459.149H776.997L777.018 486.586Z" fill="#BAC8FF"/>
<path d="M897.809 482.497C902.305 482.497 905.95 478.852 905.95 474.357C905.95 469.861 902.305 466.216 897.809 466.216C893.312 466.216 889.667 469.861 889.667 474.357C889.667 478.852 893.312 482.497 897.809 482.497Z" fill="#98ABFF"/>
<path d="M938.58 485.753H792.076V514.237H938.58V485.753Z" fill="#BAC8FF"/>
<path d="M913.391 509.625C917.887 509.625 921.533 505.98 921.533 501.484C921.533 496.988 917.887 493.344 913.391 493.344C908.894 493.344 905.249 496.988 905.249 501.484C905.249 505.98 908.894 509.625 913.391 509.625Z" fill="#98ABFF"/>
<path d="M921.642 404.37H775.139V432.854H921.642V404.37Z" fill="#BAC8FF"/>
<path d="M896.453 428.242C900.95 428.242 904.595 424.597 904.595 420.101C904.595 415.606 900.95 411.961 896.453 411.961C891.957 411.961 888.312 415.606 888.312 420.101C888.312 424.597 891.957 428.242 896.453 428.242Z" fill="#98ABFF"/>
<path d="M924.25 338.038H777.735V373.306H924.25V338.038Z" fill="#98ABFF"/>
<path d="M919.501 342.786H777.396V370.254H919.501V342.786Z" fill="white"/>
<path d="M777.735 348.058C777.597 348.058 777.463 348.002 777.365 347.904C777.267 347.806 777.212 347.673 777.212 347.534C777.212 347.395 777.267 347.262 777.365 347.164C777.463 347.066 777.597 347.011 777.735 347.011L915.071 346.335C915.21 346.335 915.343 346.39 915.442 346.489C915.54 346.587 915.595 346.72 915.595 346.859C915.595 346.998 915.54 347.131 915.442 347.229C915.343 347.327 915.21 347.382 915.071 347.382L777.735 348.058Z" fill="#BAC8FF"/>
<path d="M914.003 357.214L779.17 356.873C779.031 356.873 778.898 356.818 778.8 356.72C778.702 356.622 778.646 356.489 778.646 356.35C778.646 356.211 778.702 356.078 778.8 355.98C778.898 355.881 779.031 355.826 779.17 355.826L914.003 356.167C914.142 356.167 914.275 356.222 914.373 356.32C914.472 356.418 914.527 356.551 914.527 356.69C914.527 356.829 914.472 356.962 914.373 357.06C914.275 357.158 914.142 357.214 914.003 357.214Z" fill="#BAC8FF"/>
<path d="M779.17 366.029C779.031 366.029 778.898 365.974 778.8 365.876C778.702 365.778 778.646 365.645 778.646 365.506C778.646 365.367 778.702 365.234 778.8 365.136C778.898 365.037 779.031 364.982 779.17 364.982L915.433 363.967C915.571 363.967 915.705 364.022 915.803 364.12C915.901 364.218 915.956 364.351 915.956 364.49C915.956 364.629 915.901 364.762 915.803 364.86C915.705 364.959 915.571 365.014 915.433 365.014L779.165 366.029H779.17Z" fill="#BAC8FF"/>
<path d="M907.893 314.412C842.922 320.448 795.789 319.448 758.41 314.596V310.528C805.653 313.999 854.226 314.193 907.893 310.34V314.412Z" fill="white"/>
<path d="M912.265 310.078C848.985 314.753 803.323 314.418 767.102 308.785L767.18 304.717C813.025 309.172 860.294 309.036 912.553 306.288L912.265 310.078Z" fill="white"/>
<path d="M918.626 304.293C855.346 308.968 809.69 308.633 773.463 303L773.547 298.933C819.392 303.388 866.655 303.251 918.92 300.529L918.626 304.293Z" fill="white"/>
<path d="M909.951 301.398C846.67 306.073 801.009 305.738 764.787 300.111L764.866 296.043C810.711 300.498 857.98 300.362 910.238 297.613L909.951 301.398Z" fill="white"/>
<path d="M910.909 337.698C857.525 339.963 810.799 339.963 770.73 337.698V315.999C813.099 320.058 859.825 320.058 910.909 315.999V337.698Z" fill="white"/>
<path d="M888.253 292.389C837.466 298.032 790.296 300.55 749.389 292.389V286.939C784.783 294.98 831.591 294.237 888.253 286.939V292.389Z" fill="white"/>
<path d="M859.305 284.008C808.219 283.039 761.112 279.443 721.603 266.062L722.304 260.655C756.337 273.218 802.852 278.516 860.007 278.6L859.305 284.008Z" fill="white"/>
<path d="M758.149 399.339C768.134 406.391 782.574 403.114 790.402 392.01L852.708 301.555L817.628 276.773L754.274 366.485C746.395 377.588 748.138 392.288 758.149 399.339Z" fill="#363E44"/>
<path d="M677.792 202.66C683.809 181.159 671.253 158.854 649.75 152.839C628.246 146.824 605.937 159.377 599.92 180.877C593.904 202.377 606.46 224.683 627.963 230.698C649.467 236.713 671.776 224.16 677.792 202.66Z" fill="#FF7F59"/>
<path d="M835.036 221.581L810.072 292.059L607.869 279.302L669.867 104.26L835.036 221.581Z" fill="#DB2719"/>
<path d="M811.528 295.885L856.729 311.751L881.341 241.653L836.141 225.787L811.528 295.885Z" fill="#FFC8A6"/>
<path d="M820.945 284.764L853.184 296.179L857.569 283.798L825.33 272.383L820.945 284.764Z" fill="#FF7F59"/>
<path d="M827.723 265.633L859.962 277.047L864.347 264.666L832.108 253.252L827.723 265.633Z" fill="#FF7F59"/>
<path d="M834.501 246.502L866.739 257.916L871.124 245.535L838.886 234.12L834.501 246.502Z" fill="#FF7F59"/>
<path d="M605.744 145.878C605.648 145.878 605.554 145.852 605.472 145.802C605.389 145.752 605.323 145.68 605.278 145.595L591.702 119.357L573.293 135.78L547.878 107.317C547.794 107.212 547.753 107.08 547.764 106.946C547.776 106.812 547.838 106.688 547.938 106.599C548.038 106.509 548.168 106.462 548.302 106.466C548.436 106.47 548.564 106.525 548.658 106.621L573.376 134.314L592.011 117.687L606.21 145.119C606.273 145.242 606.284 145.384 606.242 145.516C606.2 145.647 606.108 145.757 605.985 145.82C605.911 145.858 605.828 145.878 605.744 145.878Z" fill="#363E44"/>
<path d="M562.763 213.194L528.819 208.839C528.751 208.83 528.685 208.808 528.625 208.774C528.564 208.74 528.512 208.695 528.469 208.64C528.427 208.586 528.396 208.523 528.378 208.457C528.36 208.39 528.355 208.321 528.364 208.252C528.382 208.115 528.454 207.991 528.564 207.906C528.674 207.822 528.813 207.784 528.95 207.802L561.684 211.99L561.067 193.783L585.623 193.563C585.762 193.563 585.895 193.618 585.993 193.716C586.091 193.815 586.146 193.948 586.146 194.087C586.146 194.225 586.091 194.359 585.993 194.457C585.895 194.555 585.762 194.61 585.623 194.61L562.14 194.82L562.763 213.194Z" fill="#363E44"/>
<path d="M547.668 172.629L521.353 156.4C521.291 156.366 521.237 156.319 521.194 156.263C521.151 156.207 521.119 156.143 521.102 156.075C521.084 156.006 521.08 155.935 521.091 155.865C521.101 155.795 521.126 155.728 521.163 155.668C521.2 155.608 521.249 155.556 521.307 155.515C521.365 155.475 521.43 155.446 521.499 155.431C521.568 155.417 521.64 155.416 521.709 155.429C521.778 155.443 521.844 155.47 521.903 155.51L547.234 171.11L555.611 153.835L572.596 161.86C572.658 161.89 572.714 161.932 572.761 161.983C572.807 162.034 572.842 162.094 572.865 162.16C572.888 162.225 572.898 162.294 572.894 162.363C572.89 162.432 572.872 162.5 572.842 162.562C572.782 162.686 572.675 162.782 572.545 162.828C572.414 162.874 572.271 162.867 572.146 162.808L556.103 155.227L547.668 172.629Z" fill="#363E44"/>
<path d="M290.575 17L280.229 96.9904L336.782 114.015L313.901 176.457L372.59 101.309L306.749 85.1384L290.575 17Z" fill="#B71112"/>
<path d="M281.339 193.701L243.217 171.756L258.234 124.406L182 65.5073L237.442 137.111L224.74 185.619L281.339 193.701Z" fill="#B71112"/>
<path d="M379.522 186.77L376.056 149.816L418.796 148.66L410.712 89.7609L484.636 34.3225L432.655 92.0695L439.587 157.899L389.915 162.517L379.522 186.77Z" fill="#B71112"/>
<path d="M950.198 956.011C946.265 899.659 926.776 845.502 893.897 799.563L646.148 956.011H950.198Z" fill="#B71112"/>
<path d="M338.884 956.011H643.384L401.588 790.942C365.89 837.318 343.177 893.531 338.884 956.011Z" fill="#FFE7D3"/>
<path d="M751.305 690.058C690.959 667.703 625.118 664.844 563.062 681.887L643.808 955.116L751.305 690.058Z" fill="#FF7F59"/>
<path d="M643.808 955.231L563.061 681.965C498.006 699.89 441.59 738.827 401.567 790.853L643.384 956.005H643.536L643.808 955.231Z" fill="#FFC8A6"/>
<path d="M643.536 955.78H644.002L643.808 955.115L643.536 955.78Z" fill="#D87355"/>
<path d="M644.007 956.011H646.154L893.903 799.448C858.312 749.63 808.663 711.562 751.31 690.116L643.813 955.262L644.007 956.011Z" fill="#FF4423"/>
<path d="M660.762 956.011C660.26 951.04 657.929 946.433 654.223 943.082C650.516 939.732 645.698 937.877 640.701 937.877C635.704 937.877 630.885 939.732 627.179 943.082C623.472 946.433 621.142 951.04 620.64 956.011H660.762Z" fill="#363E44"/>
<path d="M788.536 897.911L783.95 886.88L648.561 943.145L653.146 954.176L788.536 897.911Z" fill="#363E44"/>
<path d="M778.474 883.878L787.882 904.373L802.668 886.229L778.474 883.878Z" fill="#363E44"/>
<path d="M958.267 956.534H346.947C346.875 956.534 346.804 956.52 346.738 956.491C346.671 956.463 346.612 956.421 346.563 956.368C346.514 956.316 346.476 956.253 346.452 956.186C346.428 956.118 346.418 956.046 346.423 955.974C350.532 895.827 372.384 838.249 409.216 790.517C429.299 764.391 453.432 741.643 480.701 723.138C534.025 686.966 597.403 668.538 661.812 670.478C726.221 672.418 788.375 694.627 839.424 733.943C863.502 752.469 884.718 774.44 902.39 799.15C935.338 845.203 954.861 899.493 958.785 955.979C958.79 956.051 958.78 956.123 958.756 956.191C958.732 956.259 958.694 956.321 958.645 956.373C958.596 956.426 958.537 956.468 958.471 956.496C958.405 956.525 958.333 956.54 958.261 956.539L958.267 956.534ZM347.512 955.487H957.701C953.7 899.391 934.262 845.493 901.536 799.752C865.718 749.679 816.496 711.941 759.19 690.608C698.953 668.266 633.221 665.397 571.265 682.405C507.807 699.895 450.553 738.513 410.049 791.156C373.459 838.573 351.702 895.744 347.512 955.487Z" fill="#B77250"/>
<path d="M130.812 957.801L200.391 694L433.941 698.717L492.765 957.712L339.424 958L316.58 869.272L297.479 957.801H130.812Z" fill="#363E44"/>
<path d="M201.255 470.713C154.101 459.421 21.4929 421.656 4.91106 478.136C-8.79111 524.853 122.073 555.787 168.175 570.036L201.255 470.713Z" fill="#FFB6B6"/>
<path d="M431.466 481.153C478.62 469.862 625.909 420.548 642.47 477.028C656.172 523.745 501.443 564.405 455.346 578.66C444.325 545.549 442.487 514.265 431.466 481.153Z" fill="#FFB6B6"/>
<path d="M122.749 441.177C122.749 441.177 187.569 388.356 310.077 380.651C434.637 372.798 521.641 453.495 521.641 453.495L509.321 578.988L466.466 578.794L476.304 810.243L159.012 797.726L174.233 575.899L136.629 570.518L122.749 441.177Z" fill="#2A3BB7"/>
<path d="M259.739 288.667C261.08 266.607 274.321 254.938 270.211 251.048C267.368 248.342 261.132 251.336 251.671 261.576C257.954 252.97 265.986 240.924 261.221 237.458C255.504 233.757 244.414 246.803 238.089 255.022C245.744 245.075 246.786 237.71 243.65 236.443C238.707 234.448 230.963 240.631 221.324 254.54C225.361 244.128 224.696 239.804 221.649 239.359C216.078 238.547 208.355 249.755 203.088 260.77C197.161 273.171 196.805 284.646 196.805 292.138C162.117 321.904 26.0591 423.954 8.25729 449.684C-5.42394 469.451 -1.94735 495.097 17.5352 509.19C34.9338 521.754 49.3376 527.649 48.2695 528.109C89.8996 515.912 94.0097 509.263 111.01 496.856C117.147 492.381 124.849 478.942 120.849 475.351L136.336 460.924C196.496 398.973 240.367 356.177 253.415 342.43C255.756 340.064 257.749 337.376 259.331 334.447C267.221 319.564 258.561 308.115 259.739 288.667Z" fill="#FFB6B6"/>
<path d="M254.498 306.246C270.729 291.588 279.672 289.703 281.918 292.342C285.693 296.786 276.986 314.988 255.995 339.457C254.749 330.233 255.744 315.459 254.498 306.246Z" fill="#FFB6B6"/>
<path d="M136.132 462.353C136.03 462.352 135.93 462.322 135.844 462.265C135.759 462.209 135.692 462.129 135.652 462.034C135.612 461.94 135.6 461.837 135.619 461.736C135.637 461.635 135.684 461.542 135.755 461.468C144.017 452.966 152.51 444.287 160.945 435.67C160.993 435.621 161.051 435.582 161.115 435.556C161.179 435.529 161.247 435.515 161.316 435.515C161.385 435.515 161.454 435.529 161.518 435.556C161.581 435.582 161.639 435.621 161.688 435.67C161.786 435.768 161.84 435.901 161.84 436.039C161.84 436.177 161.786 436.31 161.688 436.408C153.232 445.025 144.761 453.684 136.504 462.201C136.455 462.249 136.397 462.288 136.333 462.314C136.269 462.34 136.201 462.353 136.132 462.353Z" fill="#363E44"/>
<path d="M220.214 319.103C220.141 319.103 220.068 319.087 220.002 319.058C219.935 319.028 219.875 318.984 219.826 318.93C219.733 318.827 219.685 318.692 219.692 318.554C219.699 318.415 219.76 318.285 219.863 318.192C223.877 314.591 226.746 309.891 228.115 304.675C230.513 295.41 227.219 287.662 225.696 284.783C225.662 284.722 225.64 284.654 225.633 284.585C225.625 284.516 225.632 284.445 225.652 284.379C225.671 284.312 225.705 284.25 225.749 284.196C225.793 284.142 225.848 284.097 225.91 284.065C225.972 284.032 226.039 284.013 226.109 284.007C226.178 284.001 226.248 284.009 226.315 284.03C226.381 284.052 226.442 284.086 226.495 284.132C226.548 284.177 226.591 284.233 226.622 284.296C228.193 287.301 231.617 295.331 229.125 304.953C227.707 310.371 224.731 315.255 220.565 318.998C220.464 319.074 220.339 319.111 220.214 319.103Z" fill="#363E44"/>
<path d="M261.844 324.113H261.791C261.723 324.108 261.656 324.089 261.594 324.057C261.532 324.026 261.478 323.983 261.433 323.93C261.388 323.878 261.354 323.817 261.333 323.751C261.312 323.686 261.304 323.616 261.31 323.548C261.661 318.836 260.875 314.125 260.037 309.073C259.645 306.68 259.231 304.204 258.912 301.587C258.904 301.518 258.909 301.449 258.928 301.383C258.947 301.317 258.979 301.255 259.022 301.201C259.064 301.147 259.117 301.102 259.178 301.068C259.238 301.035 259.304 301.014 259.373 301.006C259.51 300.989 259.648 301.028 259.757 301.114C259.866 301.199 259.937 301.324 259.954 301.461C260.268 304.079 260.676 306.518 261.074 308.9C261.917 313.988 262.713 318.799 262.352 323.626C262.343 323.756 262.286 323.877 262.192 323.967C262.098 324.057 261.974 324.109 261.844 324.113Z" fill="#363E44"/>
<path d="M245.67 281.071H245.618C245.48 281.058 245.353 280.99 245.264 280.883C245.176 280.776 245.134 280.638 245.147 280.5C245.812 273.906 247.97 267.549 251.456 261.911C251.529 261.793 251.645 261.709 251.779 261.677C251.913 261.644 252.055 261.667 252.173 261.738C252.232 261.774 252.284 261.821 252.324 261.877C252.365 261.933 252.394 261.996 252.41 262.063C252.426 262.131 252.429 262.2 252.418 262.268C252.407 262.337 252.382 262.402 252.346 262.461C248.945 267.96 246.84 274.161 246.189 280.595C246.177 280.724 246.118 280.845 246.022 280.933C245.926 281.021 245.801 281.07 245.67 281.071Z" fill="#363E44"/>
<path d="M233.125 273.266H233.073C233.004 273.259 232.937 273.239 232.876 273.206C232.815 273.174 232.761 273.129 232.717 273.076C232.673 273.022 232.64 272.961 232.621 272.894C232.601 272.828 232.594 272.759 232.601 272.69C233.267 266.095 235.424 259.738 238.911 254.1C238.986 253.989 239.102 253.911 239.234 253.883C239.366 253.854 239.504 253.878 239.619 253.949C239.734 254.02 239.817 254.132 239.851 254.263C239.884 254.394 239.867 254.532 239.801 254.65C236.4 260.154 234.295 266.358 233.643 272.794C233.63 272.923 233.57 273.042 233.475 273.129C233.379 273.216 233.254 273.265 233.125 273.266Z" fill="#363E44"/>
<path d="M215.146 273.318H215.093C214.956 273.303 214.83 273.235 214.743 273.128C214.656 273.022 214.614 272.885 214.627 272.747C215.287 266.155 217.435 259.799 220.91 254.158C220.945 254.096 220.992 254.042 221.047 253.999C221.103 253.956 221.168 253.925 221.236 253.907C221.304 253.889 221.376 253.885 221.445 253.896C221.515 253.906 221.582 253.931 221.642 253.968C221.703 254.005 221.755 254.054 221.795 254.112C221.836 254.17 221.865 254.235 221.879 254.304C221.894 254.373 221.895 254.445 221.881 254.514C221.868 254.583 221.84 254.649 221.8 254.708C218.402 260.212 216.299 266.416 215.648 272.852C215.635 272.977 215.576 273.093 215.484 273.179C215.392 273.264 215.272 273.314 215.146 273.318Z" fill="#363E44"/>
<path d="M421.354 257.142C424.123 235.213 413.264 221.298 418.003 218.23C421.296 216.094 426.872 220.193 434.27 232.009C429.679 222.387 424.019 209.069 429.349 206.546C435.632 203.965 444.135 218.832 448.831 228.082C443.15 216.89 443.475 209.237 446.8 208.566C452.036 207.52 458.45 216.367 465.382 230.25C463.507 219.837 464.801 215.372 467.879 215.498C473.503 215.728 479.084 228.292 482.22 240.102C485.754 253.383 483.791 264.842 482.65 272.208C511.583 307.963 626.038 433.32 638.777 461.887C648.568 483.874 648.002 501.243 622.588 515.87C603.979 526.586 594.063 528.282 595.031 528.957C556.375 509.269 541.458 511.211 527.044 495.872C521.845 490.344 518.73 469.101 523.322 466.316L510.756 449.271C463.109 377.269 427.888 327.097 417.631 311.182C415.763 308.425 414.301 305.414 413.291 302.241C408.285 286.117 418.914 276.469 421.354 257.142Z" fill="#FFB6B6"/>
<path d="M423.254 275.391C410.039 257.964 401.578 254.477 398.882 256.66C394.347 260.325 399.536 279.825 415.636 307.727C418.568 298.917 420.322 284.212 423.254 275.391Z" fill="#FFB6B6"/>
<path d="M510.782 450.695C510.695 450.694 510.61 450.672 510.535 450.631C510.459 450.59 510.394 450.531 510.347 450.459C503.792 440.56 497.069 430.467 490.367 420.457C490.289 420.342 490.26 420.201 490.287 420.064C490.313 419.928 490.393 419.807 490.508 419.73C490.624 419.652 490.765 419.623 490.902 419.65C491.038 419.676 491.158 419.756 491.236 419.871C497.938 429.885 504.666 439.979 511.221 449.878C511.259 449.936 511.286 450 511.299 450.068C511.312 450.136 511.311 450.206 511.297 450.273C511.283 450.341 511.256 450.405 511.216 450.462C511.177 450.519 511.127 450.568 511.069 450.606C510.984 450.663 510.884 450.694 510.782 450.695Z" fill="#363E44"/>
<path d="M454.669 294.373C454.588 294.373 454.507 294.354 454.435 294.318C454.362 294.281 454.299 294.229 454.25 294.164C450.847 289.717 448.824 284.369 448.433 278.783C447.763 268.868 452.622 261.602 454.716 258.943C454.802 258.834 454.927 258.764 455.064 258.747C455.202 258.73 455.34 258.769 455.449 258.854C455.504 258.896 455.549 258.949 455.583 259.009C455.617 259.069 455.639 259.136 455.647 259.204C455.656 259.273 455.65 259.342 455.631 259.409C455.613 259.475 455.581 259.538 455.538 259.592C453.501 262.157 448.836 269.161 449.475 278.715C449.855 284.096 451.805 289.246 455.083 293.53C455.166 293.641 455.203 293.78 455.184 293.917C455.166 294.055 455.093 294.179 454.983 294.263C454.893 294.333 454.783 294.371 454.669 294.373Z" fill="#363E44"/>
<path d="M412.83 291.588H412.767C412.699 291.58 412.632 291.559 412.572 291.525C412.512 291.492 412.459 291.447 412.416 291.393C412.373 291.339 412.342 291.277 412.323 291.211C412.304 291.145 412.298 291.075 412.306 291.007C412.83 286.196 414.516 281.621 416.286 276.773C417.118 274.506 417.971 272.161 418.762 269.669C418.804 269.537 418.896 269.426 419.02 269.362C419.143 269.297 419.287 269.285 419.419 269.326C419.552 269.368 419.662 269.46 419.727 269.584C419.791 269.707 419.804 269.851 419.762 269.983C418.966 272.501 418.102 274.852 417.27 277.129C415.521 281.919 413.872 286.437 413.348 291.122C413.334 291.25 413.273 291.368 413.178 291.454C413.082 291.54 412.958 291.587 412.83 291.588Z" fill="#363E44"/>
<path d="M436.669 252.284C436.531 252.272 436.403 252.206 436.314 252.1C436.224 251.994 436.181 251.857 436.192 251.718C436.742 245.272 435.82 238.785 433.496 232.747C433.446 232.617 433.45 232.473 433.506 232.346C433.563 232.218 433.667 232.119 433.797 232.069C433.927 232.019 434.071 232.023 434.198 232.079C434.326 232.136 434.425 232.24 434.475 232.37C436.84 238.558 437.769 245.203 437.192 251.802C437.182 251.934 437.122 252.056 437.025 252.146C436.928 252.235 436.801 252.284 436.669 252.284Z" fill="#363E44"/>
<path d="M450.46 246.928H450.412C450.274 246.916 450.147 246.85 450.057 246.744C449.968 246.638 449.924 246.501 449.936 246.363C450.484 239.917 449.564 233.431 447.245 227.392C447.195 227.262 447.199 227.119 447.255 226.992C447.311 226.866 447.414 226.767 447.543 226.716C447.607 226.692 447.676 226.68 447.745 226.682C447.813 226.684 447.881 226.7 447.944 226.728C448.007 226.756 448.063 226.797 448.11 226.847C448.157 226.897 448.194 226.956 448.219 227.02C450.599 233.205 451.543 239.849 450.978 246.452C450.966 246.582 450.907 246.702 450.811 246.79C450.715 246.878 450.59 246.928 450.46 246.928Z" fill="#363E44"/>
<path d="M468.114 250.31H468.083C468.014 250.305 467.946 250.286 467.884 250.254C467.822 250.223 467.767 250.179 467.722 250.126C467.678 250.073 467.644 250.011 467.623 249.945C467.602 249.879 467.595 249.809 467.601 249.74C468.157 243.295 467.237 236.809 464.91 230.773C464.86 230.643 464.864 230.499 464.92 230.372C464.977 230.245 465.081 230.145 465.211 230.095C465.341 230.045 465.485 230.049 465.612 230.105C465.74 230.162 465.839 230.267 465.889 230.396C468.27 236.581 469.213 243.226 468.648 249.829C468.638 249.962 468.576 250.086 468.477 250.176C468.378 250.265 468.248 250.313 468.114 250.31Z" fill="#363E44"/>
<path d="M323.042 416.475C318.754 416.278 314.548 415.239 310.662 413.417C306.776 411.594 303.288 409.024 300.395 405.854C297.503 402.684 295.264 398.975 293.805 394.939C292.346 390.903 291.697 386.619 291.894 382.333L294.92 316.299L360.221 319.272L357.19 385.306C356.996 389.595 355.958 393.803 354.137 397.691C352.315 401.579 349.746 405.07 346.574 407.964C343.403 410.859 339.693 413.1 335.655 414.561C331.617 416.021 327.331 416.672 323.042 416.475Z" fill="#FFB6B6"/>
<path d="M282.134 301.134L374.238 309.806L381.012 237.887L288.908 229.214L282.134 301.134Z" fill="#363E44"/>
<path d="M377.573 291.883C376.358 317.471 361.174 357.346 328.115 355.791C295.056 354.237 283.684 313.105 284.883 287.517C286.082 261.928 308.02 248.872 333.618 250.076C359.216 251.28 378.777 266.289 377.573 291.883Z" fill="#FFB6B6"/>
<path d="M294.36 298.547C298.292 308.666 296.009 318.995 289.26 321.618C282.511 324.24 273.856 318.157 269.924 308.038C265.992 297.919 268.28 287.59 275.024 284.968C281.768 282.345 290.428 288.428 294.36 298.547Z" fill="#FFB6B6"/>
<path d="M366.865 301.965C362.001 311.671 363.305 322.167 369.776 325.408C376.248 328.648 385.437 323.413 390.301 313.707C395.165 304.002 393.866 293.506 387.395 290.26C380.923 287.014 371.735 292.26 366.865 301.965Z" fill="#FFB6B6"/>
<path d="M378.221 318.386C378.105 318.387 377.992 318.349 377.9 318.279C377.807 318.208 377.741 318.109 377.711 317.997C377.681 317.886 377.689 317.767 377.734 317.66C377.779 317.553 377.858 317.464 377.959 317.407C380.124 316.083 381.857 314.159 382.949 311.868C385.43 306.911 384.833 301.571 381.619 299.959C381.311 299.805 380.986 299.689 380.65 299.613C380.583 299.598 380.52 299.569 380.464 299.529C380.408 299.489 380.36 299.439 380.323 299.38C380.287 299.322 380.262 299.257 380.251 299.189C380.24 299.121 380.242 299.052 380.257 298.985C380.273 298.918 380.301 298.855 380.341 298.799C380.381 298.742 380.432 298.695 380.49 298.658C380.548 298.622 380.613 298.597 380.681 298.586C380.749 298.575 380.819 298.577 380.886 298.592C381.301 298.688 381.703 298.832 382.085 299.022C385.818 300.89 386.624 306.874 383.886 312.334C382.701 314.811 380.822 316.889 378.477 318.318C378.399 318.362 378.311 318.385 378.221 318.386Z" fill="#363E44"/>
<path d="M279.143 313.716C279.036 313.716 278.932 313.683 278.845 313.622C276.645 311.981 274.97 309.737 274.023 307.162C271.808 301.456 273.174 295.588 277.07 294.075C277.467 293.92 277.882 293.814 278.306 293.761C278.374 293.752 278.444 293.756 278.511 293.774C278.578 293.792 278.641 293.823 278.696 293.866C278.751 293.908 278.797 293.961 278.831 294.021C278.866 294.081 278.888 294.147 278.897 294.216C278.906 294.285 278.901 294.355 278.883 294.421C278.865 294.488 278.834 294.551 278.792 294.606C278.75 294.661 278.697 294.707 278.637 294.742C278.577 294.776 278.51 294.799 278.442 294.808C278.101 294.853 277.767 294.939 277.447 295.064C274.091 296.362 272.996 301.629 275.002 306.796C275.872 309.179 277.416 311.258 279.447 312.779C279.536 312.844 279.603 312.935 279.637 313.04C279.672 313.145 279.672 313.258 279.638 313.363C279.605 313.468 279.539 313.56 279.45 313.625C279.361 313.69 279.254 313.726 279.143 313.727V313.716Z" fill="#363E44"/>
<path d="M370.781 319.899C370.722 319.898 370.663 319.887 370.608 319.867C370.478 319.821 370.371 319.725 370.311 319.601C370.252 319.476 370.243 319.333 370.289 319.202C372.728 312.301 374.372 305.144 375.189 297.87C375.197 297.801 375.217 297.735 375.25 297.674C375.283 297.613 375.328 297.559 375.382 297.516C375.435 297.472 375.497 297.44 375.563 297.42C375.63 297.401 375.699 297.394 375.768 297.401C375.837 297.409 375.903 297.429 375.964 297.462C376.025 297.495 376.079 297.54 376.122 297.594C376.166 297.647 376.198 297.709 376.218 297.775C376.237 297.842 376.244 297.911 376.237 297.98C375.409 305.331 373.745 312.564 371.278 319.538C371.244 319.642 371.178 319.734 371.088 319.799C370.999 319.864 370.891 319.899 370.781 319.899Z" fill="#363E44"/>
<path d="M286.877 318.375C286.76 318.38 286.645 318.345 286.55 318.277C286.455 318.209 286.386 318.111 286.353 317.998C283.964 309.424 282.762 300.562 282.782 291.661C282.782 291.522 282.838 291.389 282.936 291.291C283.034 291.193 283.167 291.138 283.306 291.138C283.445 291.138 283.578 291.193 283.676 291.291C283.774 291.389 283.83 291.522 283.83 291.661C283.81 300.462 284.999 309.223 287.364 317.7C287.383 317.766 287.389 317.836 287.381 317.904C287.373 317.973 287.352 318.039 287.318 318.1C287.285 318.16 287.24 318.213 287.185 318.256C287.131 318.299 287.069 318.33 287.003 318.349C286.962 318.362 286.919 318.371 286.877 318.375Z" fill="#363E44"/>
<path d="M328.224 358.271C327.648 358.271 327.062 358.271 326.475 358.219C313.747 357.444 304.003 348.503 296.94 340.797C296.846 340.695 296.797 340.559 296.803 340.421C296.809 340.283 296.87 340.152 296.971 340.059C297.074 339.965 297.209 339.916 297.347 339.922C297.485 339.928 297.616 339.988 297.71 340.09C305.076 348.12 314.26 356.428 326.538 357.172C338.816 357.915 349.131 350.293 356.707 343.561C356.757 343.511 356.818 343.471 356.884 343.445C356.95 343.419 357.021 343.407 357.092 343.409C357.163 343.411 357.232 343.428 357.297 343.458C357.361 343.488 357.419 343.531 357.466 343.584C357.514 343.637 357.55 343.699 357.572 343.766C357.595 343.834 357.603 343.905 357.597 343.976C357.592 344.047 357.571 344.116 357.538 344.178C357.505 344.241 357.459 344.296 357.403 344.341C350.031 350.89 340.136 358.271 328.224 358.271Z" fill="#363E44"/>
<path d="M371.598 293.603C369.803 296.139 367.681 298.427 365.289 300.409C362.603 302.649 357.393 299.734 353.299 300.89C348.178 302.335 344.78 306.994 340.916 306.157C338.69 305.691 336.517 305.004 334.429 304.105C335.497 302.581 336.696 301.151 338.01 299.833C340.864 296.912 345.586 298.467 351.257 296.865C356.032 295.519 360.561 290.667 364.346 291.394C366.837 291.862 369.269 292.603 371.598 293.603Z" fill="white"/>
<path d="M350.99 291.687C345.314 293.289 340.864 296.922 338.005 299.833C338.422 302.146 339.414 304.317 340.89 306.146C344.759 306.984 349.911 307.466 355.027 306.016C358.819 304.873 362.328 302.944 365.325 300.357C365.983 297.336 365.615 294.182 364.278 291.394C360.55 290.667 355.77 290.337 350.99 291.687Z" fill="#363E44"/>
<path d="M286.782 289.609C288.568 292.697 290.804 295.503 293.416 297.933C295.736 300.09 300.746 297.681 304.228 299.022C308.836 300.802 311.49 305.445 315.297 305.079C317.848 304.85 320.367 304.337 322.805 303.55C321.933 302.02 320.939 300.563 319.831 299.194C317.276 295.985 310.6 298.372 304.971 296.195C300.327 294.394 298.018 287.714 294.201 288.091C291.68 288.322 289.192 288.832 286.782 289.609Z" fill="white"/>
<path d="M319.757 299.105C317.197 295.912 313.06 291.776 307.479 289.635C302.824 287.835 298.007 287.719 294.185 288.102C292.858 290.829 292.464 293.918 293.065 296.891C293.128 297.205 293.211 297.504 293.295 297.802C295.836 300.258 298.828 302.199 302.107 303.518C306.762 305.325 311.579 305.44 315.406 305.058C317.363 303.499 318.866 301.443 319.757 299.105Z" fill="#363E44"/>
<path d="M329.214 322.778C329.096 322.777 328.981 322.737 328.889 322.662C328.797 322.588 328.732 322.485 328.706 322.37C328.68 322.255 328.694 322.134 328.745 322.027C328.796 321.921 328.882 321.835 328.989 321.783C331.046 320.804 332.214 319.689 332.465 318.433C332.67 317.428 332.23 316.601 331.617 315.449C331.013 314.39 330.537 313.264 330.198 312.093C329.642 309.945 329.632 307.692 330.167 305.539C330.182 305.472 330.211 305.409 330.251 305.353C330.291 305.297 330.341 305.249 330.4 305.213C330.458 305.176 330.523 305.152 330.591 305.14C330.659 305.129 330.728 305.131 330.795 305.147C330.863 305.162 330.927 305.191 330.983 305.231C331.039 305.271 331.087 305.322 331.124 305.381C331.16 305.44 331.185 305.506 331.196 305.574C331.207 305.643 331.204 305.713 331.188 305.78C330.684 307.76 330.684 309.835 331.188 311.816C331.509 312.911 331.957 313.965 332.523 314.957C333.183 316.198 333.748 317.265 333.471 318.621C333.151 320.192 331.79 321.579 329.418 322.705C329.357 322.744 329.287 322.77 329.214 322.778Z" fill="#363E44"/>
<path d="M326.868 335.598C326.781 335.598 326.694 335.576 326.618 335.534C326.541 335.492 326.476 335.431 326.428 335.357C325.64 334.172 324.496 333.267 323.161 332.771C322.046 332.336 320.844 332.171 319.653 332.292C318.462 332.414 317.317 332.816 316.313 333.468C316.256 333.507 316.193 333.535 316.125 333.55C316.058 333.565 315.989 333.567 315.921 333.555C315.853 333.543 315.788 333.518 315.73 333.481C315.672 333.444 315.622 333.396 315.582 333.339C315.543 333.283 315.515 333.219 315.5 333.152C315.485 333.085 315.483 333.016 315.495 332.948C315.507 332.88 315.532 332.815 315.569 332.757C315.606 332.699 315.654 332.649 315.711 332.609C316.856 331.861 318.164 331.396 319.526 331.254C320.887 331.112 322.262 331.297 323.538 331.792C325.08 332.369 326.4 333.419 327.308 334.792C327.359 334.871 327.387 334.962 327.391 335.056C327.394 335.15 327.372 335.243 327.327 335.325C327.282 335.408 327.216 335.477 327.135 335.525C327.054 335.573 326.962 335.598 326.868 335.598Z" fill="#363E44"/>
<path d="M362.843 250.41C363.496 252.08 364.472 253.606 365.715 254.899C366.958 256.193 368.443 257.229 370.087 257.948C371.73 258.668 373.499 259.057 375.293 259.092C377.086 259.128 378.869 258.811 380.54 258.157C387.567 255.414 401.887 247.478 399.143 240.453C396.4 233.427 377.624 229.983 370.592 232.715C368.921 233.369 367.395 234.344 366.102 235.587C364.808 236.83 363.772 238.315 363.052 239.958C362.333 241.601 361.944 243.37 361.908 245.163C361.872 246.956 362.19 248.739 362.843 250.41Z" fill="#363E44"/>
<path d="M264.379 253.195C267.729 261.775 289.333 261.047 297.888 257.681C301.995 256.062 305.293 252.88 307.058 248.834C308.824 244.788 308.913 240.207 307.306 236.095C305.699 231.984 302.527 228.677 298.486 226.899C294.445 225.121 289.863 225.018 285.746 226.612C277.185 229.967 261.022 244.615 264.379 253.195Z" fill="#363E44"/>
<path d="M352.785 234.61C354.395 238.731 357.576 242.042 361.629 243.817C365.681 245.592 370.273 245.685 374.393 244.075C382.975 240.72 397.3 220.879 391.609 214.283C385.593 207.305 370.828 209.65 362.252 213.006C360.211 213.802 358.347 214.993 356.767 216.51C355.186 218.027 353.92 219.841 353.041 221.847C352.162 223.853 351.687 226.013 351.643 228.203C351.599 230.393 351.987 232.571 352.785 234.61Z" fill="#363E44"/>
<path d="M295.301 229.58C295.803 230.866 296.554 232.04 297.511 233.036C298.467 234.031 299.611 234.829 300.876 235.383C302.14 235.937 303.502 236.236 304.883 236.264C306.263 236.292 307.636 236.047 308.922 235.545C310.208 235.042 311.382 234.291 312.378 233.335C313.374 232.379 314.172 231.236 314.726 229.971C315.28 228.706 315.579 227.345 315.607 225.965C315.635 224.584 315.391 223.212 314.888 221.926C312.794 216.518 302.579 208.755 297.17 210.87C291.761 212.985 293.165 224.172 295.301 229.58Z" fill="#363E44"/>
<path d="M310.485 233.239C312.105 237.346 315.287 240.643 319.334 242.408C323.38 244.173 327.962 244.262 332.074 242.655C336.187 241.049 339.494 237.878 341.272 233.837C343.05 229.796 343.154 225.216 341.56 221.099C338.209 212.519 320.758 187.716 312.176 191.071C303.595 194.427 307.129 224.664 310.485 233.239Z" fill="#363E44"/>
<path d="M312.626 263.89C315.982 272.47 335.009 270.397 343.591 267.031C347.621 265.356 350.834 262.168 352.54 258.152C354.247 254.136 354.312 249.611 352.72 245.548C351.129 241.485 348.008 238.207 344.028 236.418C340.047 234.629 335.524 234.47 331.428 235.977C322.867 239.327 309.275 255.315 312.626 263.89Z" fill="#363E44"/>
<path d="M332.554 226.109C334.165 230.229 337.346 233.541 341.399 235.315C345.452 237.09 350.044 237.182 354.165 235.571C358.285 233.961 361.597 230.779 363.372 226.727C365.147 222.675 365.239 218.084 363.628 213.964C360.277 205.389 346.701 193.631 338.119 196.987C329.538 200.342 329.203 217.529 332.554 226.109Z" fill="#363E44"/>
<path d="M352.748 254.383C350.152 255.397 348.065 257.401 346.945 259.953C345.826 262.505 345.766 265.398 346.779 267.994C348.874 273.407 357.068 281.249 362.487 279.134C367.906 277.019 368.492 265.753 366.377 260.34C365.874 259.054 365.123 257.879 364.166 256.883C363.208 255.887 362.064 255.089 360.798 254.536C359.532 253.983 358.17 253.684 356.788 253.658C355.407 253.632 354.034 253.878 352.748 254.383Z" fill="#363E44"/>
</g>
<defs>
<clipPath id="clip0_218_1822">
<rect width="960" height="958" fill="white"/>
</clipPath>
</defs>
</svg>
