<svg xmlns="http://www.w3.org/2000/svg" viewBox="0 0 1605.07 1264.32"><defs><style>.cls-1{fill:#9fc1e6;}.cls-2{fill:#70c2b9;}.cls-3{fill:#219280;}.cls-4{fill:#2bb19e;}.cls-5{fill:#4b3584;}.cls-6{fill:#5a8dbf;}.cls-7{fill:#f5ae9e;}.cls-8{fill:#e53334;}.cls-9{fill:#f7af4d;}.cls-10{fill:#2b2150;}.cls-11{fill:#108875;}.cls-12{fill:#1d9a85;}.cls-13{fill:#7085b1;}.cls-14{fill:#54b9a9;}.cls-15{fill:#313b84;}.cls-16{fill:#6fc2b9;}.cls-17{fill:#ee7e94;}</style></defs><g id="Layer_2" data-name="Layer 2"><g id="Слой_2" data-name="Слой 2"><polygon class="cls-1" points="473.72 1159.97 468.22 1194.62 406.38 1260.62 309.85 1260.85 284.59 1186.06 338.52 1100.31 280.94 1092.3 248.15 1032.73 347.68 1008.08 386.67 1050.03 353.83 1093.46 418.87 1129.03 463.45 1105.44 473.72 1159.97"/><path class="cls-2" d="M227.52,441H208.28c-7.54-10-14.94-25.11-21.7-46.62C171,344.63,181.4,277.19,181.4,277.19s36.17,42.6,56.62,85.89c-5.74,14.34-11,31.13-12.12,46.4C224.88,423.12,225.57,433.43,227.52,441Z"/><path class="cls-3" d="M347.87,304.71s-10.64,62.4-39.5,105.23c-8.84,13.13-17.07,23.36-24.56,31h-19c2.78-7.26,4.81-17.11,5.78-30,.74-10.5-.32-21.93-2.26-32.8l13.32-14.94C311.7,331.54,347.87,304.71,347.87,304.71Z"/><path class="cls-4" d="M270.62,411c-1,12.9-3,22.75-5.78,30H227.52c-2-7.54-2.64-17.85-1.62-31.49,1.11-15.27,6.38-32.06,12.12-46.4A299.28,299.28,0,0,1,254.2,329a270.91,270.91,0,0,1,14.16,49.16C270.3,389,271.36,400.46,270.62,411Z"/><rect class="cls-5" x="1184.4" y="911.84" width="17.29" height="231.68"/><path class="cls-6" d="M1448.72,240.88,1346.29,901.67a26.47,26.47,0,0,1-26.16,22.42h-282.2a24.48,24.48,0,0,1-24.48-24.48v-.49a24.47,24.47,0,0,1,24.48-24.47h249a18.72,18.72,0,0,0,18.58-16.46l76.07-626.65a33.56,33.56,0,0,1,36.68-29.36l.67.06A33.61,33.61,0,0,1,1448.72,240.88Z"/><path class="cls-7" d="M450.64,541.06l-113.78.05a16.49,16.49,0,0,1,7.86-12.58c18.27-10.87,39.59-16.37,61.1-21.18,13.18-2.92,27.2-4.54,40.29-1.53Z"/><path class="cls-3" d="M1000.31,1260.57s-16.28.19-31.92,0H793.14c-23.82-.32-39.73,0-39.73,0a92.19,92.19,0,0,1-.46-11.28L588.2,1204.74c-22.9-6.47-38.35-10.36-38.35-10.36s9.85-65.77,52.59-46.94c28,12.3,96.62-2.13,96.62-2.13s.42.14,1.39.51c4.35,2,19,10.31,38.3,37.32,7.77,10.87,45.56,11.89,56.06-7.91l.37-2c2.45,2.08,4.39,5.36,5.64,10.55a74.27,74.27,0,0,1,1.9,18c32.14-2.17,82-27.52,82-27.52h0a4.73,4.73,0,0,1,1,.1c.19,0,.42,0,.7.09,4.67.83,18.91,4.72,41.21,21.78,1.71,1.34,3.47,2.73,5.27,4.21,10.32,8.42,47-.41,52-22.29l-.18-2.08c2.91,1.38,5.69,4.07,8.23,8.74C1009.7,1215.38,1000.31,1260.57,1000.31,1260.57Z"/><path class="cls-7" d="M798.92,1152.15l-4.11,23.08c-10.5,19.8-48.29,18.78-56.06,7.91-23.17-32.33-39.5-37.83-39.69-37.83l8.38-13.32Z"/><path class="cls-8" d="M1213.9,876.53l-231.08-3L991.33,1011l12.45,132.7-133.95,18.4-6.52-182.65-57.4,174.19-124.19-27.33,138.57-363c4.77-13.83,27-28,41.49-30.06l173.49-27.61a148,148,0,0,1-3.74,19.1c-.42,1.57,8.88-.55,24.7-3.61l-5.14,101.16,6,.41,19.19,1.39,6.94.51,19.19,1.34,6.94.51,18.92,1.34s.09-.69.28-1.94c.87-6.62,3.83-29.14,6.93-58.1,1.81-17.2,3.7-36.72,5.14-56.42a354.19,354.19,0,0,1,46.53,1.75c54.3,5.83,82.1,7.5,96.25,7.64C1303,785.51,1267.74,879.73,1213.9,876.53Z"/><path class="cls-9" d="M1298,719.83s-5.32,4.67-110.87-6.71a354.19,354.19,0,0,0-46.53-1.75c-1.44,19.7-3.33,39.22-5.14,56.42-3.1,29-6.06,51.48-6.93,58.1-.19,1.25-.28,1.94-.28,1.94l-18.92-1.34-6.94-.51-19.19-1.34-6.94-.51-19.19-1.39-6-.41,5.14-101.16c-15.82,3.06-25.12,5.18-24.7,3.61,18.41-69.56-17.21-137.56-26.51-153.61.19-.69-.17-27.45-.17-27.45.37.67-107.17-4.25-107.17-4.25-.15-13.29,2.63-25.09-4.31-29.86-2.17-1.52-5-1.57-7.63-1.62q-36.57-.35-73.17-.74c1-.51,2-1,3-1.48a123.6,123.6,0,0,0,20.12-12.72q4.35-3.44,8.37-7.26a80.42,80.42,0,0,0,6.38-6.8,81.4,81.4,0,0,0,13-19.7c1.19-2.49,4.49-3.15,4.49-3.15,29.42,9,60.22-35.93,48.38-71.92C911.09,368.63,902.94,366,902.94,366s-1.89,0-5-.18c8.61-5.6,14.43-9.3,14.43-9.3C1024.54,308.83,1196.28,358.13,1298,719.83Z"/><path class="cls-7" d="M1120.72,823.8c9.06,16.62.68,106.58.68,106.58-.6,24.24-30.33,31.72-50.63,21.36-13.72-7.68-15.19-71.52-13.35-83.85,0,0-9.7,4.45-14.27,5.15-3.3.51-14-3.56-15.64-6.18-5-8-4.4-10.42.55-11.5,9.07-2,18.74-18.19,20.62-21.74,2.69-5.06,14.19-12.26,20-13.53Z"/><path class="cls-5" d="M1094,1239.43a17.31,17.31,0,1,1-14.36-14.36A17.32,17.32,0,0,1,1094,1239.43Z"/><path class="cls-10" d="M926.58,0H680.84a3.49,3.49,0,0,0-3.47,3.47V22.34H645.78a3.49,3.49,0,0,0-3.47,3.47V99.63a3.5,3.5,0,0,0,3.47,3.47h31.59V122a3.5,3.5,0,0,0,3.47,3.47H926.58a3.5,3.5,0,0,0,3.47-3.47V3.47A3.49,3.49,0,0,0,926.58,0ZM649.25,96.16V29.28h28.12V96.16ZM923.11,118.5H684.31V6.94h238.8Z"/><rect class="cls-8" x="861.96" y="22.09" width="41.97" height="81.25"/><path class="cls-10" d="M903.93,106.8H862a3.47,3.47,0,0,1-3.47-3.47V22.09A3.47,3.47,0,0,1,862,18.62h42a3.47,3.47,0,0,1,3.47,3.47v81.24A3.47,3.47,0,0,1,903.93,106.8Zm-38.5-6.93h35V25.56h-35Z"/><path class="cls-8" d="M308.41,441v55.55c0,24.47-28.91,44.31-64.57,44.31h-1.29C206.89,540.83,178,521,178,496.52V441Z"/><path class="cls-11" d="M1390.2,897c-34.4,52.78-22,129.17-6,160l32.43,4.87c14.9-16.27,45.52-61.21,61.95-107.84,6.25-17.75-15.53-14-10.19-34.31,4.54-17.29,26.35-32.23,31.31-58.59,2.73-14.5-15.63-5.07-14.77-11.33s12.83-21.38,14.39-26.61c10.48-35,6.42-53.91,6.42-53.91s-29.89,17.66-45,54.53c-18.22,44.47-13.91,2.05-30.75,17.39-12.31,11.21-7.64,39.91-12.2,48.21C1408.45,906.44,1403.77,876.16,1390.2,897Z"/><path class="cls-4" d="M1261.54,968.47c51.33,26.55,80.5,87.35,74.57,95.65h-39.93s-13.07-5.7-29.32-22.51c-9.71-10-11.18-18.33-19.83-25.34-9.33-7.58-16.72-.16-27.94-3.31-5.5-1.55-10-13.68-20.1-15.81-12-2.56-19.07,9.08-30,9.91-23.53,1.8-46.61-3.44-46.61-3.44S1206.18,939.84,1261.54,968.47Z"/><path class="cls-11" d="M1303.66,951.66c26.36,45.53,45.53,88.68,49,109.42h-19.79c-13.52-14.72-32.42-40.8-51.47-73.71-32.94-56.92-86.07-137-86.07-137S1270.72,894.74,1303.66,951.66Z"/><path class="cls-12" d="M1542,883.39c11.23-9.44,12.94-26.65,22.51-37.76s22.68-33.83,37-30.65c-11.57,10-10.48,36.22-17,50.11a227.8,227.8,0,0,1-27.84,44.36c-11.38,14.42-8.89,35.21-15.47,52.36-7.42,19.34-25.43,32.12-41.07,45.71s-30.71,31.1-28.61,51.71H1390c-5.59-16.54,2.23-31.45,16.23-41.89,10.9-8.12,25.25-10.59,36-18.9,24.2-18.71,20.81-58,41.68-80.39C1499.38,901.48,1524.64,898,1542,883.39Z"/><path class="cls-10" d="M1507.56,949.21a2.3,2.3,0,0,1-2.17-3.09c3.18-8.9,16.55-36.62,35.66-46.84a2.32,2.32,0,0,1,2.19,4.08c-16.51,8.83-29.7,33.67-33.5,44.32A2.31,2.31,0,0,1,1507.56,949.21Z"/><path class="cls-10" d="M1412.06,950.15a2.32,2.32,0,0,1-2-3.52c5.3-8.69,11.3-17.2,17.09-25.42,11.1-15.76,22.59-32.05,29.51-50.15a2.31,2.31,0,0,1,4.31,1.65c-7.12,18.64-18.77,35.17-30,51.17-5.75,8.15-11.7,16.6-16.92,25.16A2.33,2.33,0,0,1,1412.06,950.15Z"/><path class="cls-10" d="M1385.74,1011a2.27,2.27,0,0,1-1-.25,2.3,2.3,0,0,1-1-3.09,271.82,271.82,0,0,0,10.65-25.82c1.18-3.16,2.36-6.33,3.58-9.47a2.31,2.31,0,0,1,4.31,1.67c-1.21,3.13-2.38,6.27-3.55,9.41a271.45,271.45,0,0,1-10.86,26.27A2.31,2.31,0,0,1,1385.74,1011Z"/><path class="cls-13" d="M1292.35,700.3v20.35c-1.75.09-4,.14-6.93.14V677.63C1287.77,685,1290.09,692.57,1292.35,700.3Z"/><path class="cls-13" d="M1266.22,622.36v97.73c-2.17-.09-4.49-.23-6.94-.41V604.46Q1262.82,613.2,1266.22,622.36Z"/><path class="cls-13" d="M1240.09,560.06V718.29c-2.22-.19-4.53-.42-6.94-.6V545.63Q1236.62,552.71,1240.09,560.06Z"/><path class="cls-13" d="M1214,509.55V715.88c-2.23-.18-4.58-.41-6.94-.64V497.71C1209.33,501.55,1211.64,505.53,1214,509.55Z"/><path class="cls-13" d="M1187.82,468.15V713.2a3.44,3.44,0,0,1-.64,0c-2.13-.24-4.21-.42-6.29-.61V458.49C1183.2,461.63,1185.51,464.87,1187.82,468.15Z"/><path class="cls-13" d="M1161.69,434.34v277.1c-2.31-.09-4.63-.13-6.94-.13V426.48C1157.11,429,1159.42,431.66,1161.69,434.34Z"/><path class="cls-13" d="M1135.51,406.78v361c-3.1,29-6.06,51.48-6.94,58.09V400.49C1130.89,402.52,1133.2,404.6,1135.51,406.78Z"/><path class="cls-13" d="M1109.38,384.9V826.48l-6.94-.51V379.9C1104.75,381.52,1107.07,383.19,1109.38,384.9Z"/><path class="cls-13" d="M1083.25,367.88V824.62l-6.94-.5v-460C1078.62,365.29,1080.93,366.54,1083.25,367.88Z"/><path class="cls-13" d="M1057.11,356.49V731.94c-1.8-4.08-4.16-9.36-6.94-15.71V352.62C1052.49,353.82,1054.8,355.09,1057.11,356.49Z"/><polygon class="cls-13" points="1051.1 822.31 1057.11 704.23 1057.11 822.73 1051.1 822.31"/><path class="cls-13" d="M1031,346.79V637a236,236,0,0,0-6.94-23.73v-268C1026.35,345.72,1028.67,346.23,1031,346.79Z"/><path class="cls-13" d="M1004.85,342.19V543.72c-1.21-1.88-2-2.85-2-2.85l-5,.24V341.7C1000.22,341.78,1002.53,342,1004.85,342.19Z"/><path class="cls-13" d="M978.71,341.47V541l-6.93.33V341.83Q975.25,341.53,978.71,341.47Z"/><path class="cls-13" d="M952.58,344.38V541l-6.94.33V345.59C947.91,345.15,950.27,344.75,952.58,344.38Z"/><path class="cls-13" d="M926.45,351.14V541l-6.94.32V353.25C921.82,352.53,924.09,351.81,926.45,351.14Z"/><path class="cls-13" d="M900.32,449.61v94l-6.94.28V453.31A45.76,45.76,0,0,0,900.32,449.61Z"/><path class="cls-13" d="M874.14,457.16v49.59c-2.87.48-5.23.85-6.94,1.12V457.16A37.2,37.2,0,0,0,874.14,457.16Z"/><path class="cls-13" d="M848,486.12V505.2h-6.93V492c2.45-2.06,4.81-4.07,6.7-5.83Z"/><path class="cls-14" d="M1345.2,897.87c19,57.54,33.77,122.14,42.36,163.21h-35.14c-16.6-29.21-35.87-64-54.47-120.21-36.2-109.39-102.29-280.63-102.62-281.58C1195.33,659.29,1307.22,782.78,1345.2,897.87Z"/><path class="cls-15" d="M1443.51,1260.62H1306.65c-16.1,0-29.15-17.54-29.15-39.18V1054.82h195.16v166.62C1472.66,1243.08,1459.61,1260.62,1443.51,1260.62Z"/><polygon class="cls-16" points="1445.57 1054.87 1277.48 1111.88 1277.48 1097.7 1403.59 1054.87 1445.57 1054.87"/><polygon class="cls-16" points="1472.69 1074.21 1472.69 1088.49 1277.48 1154.82 1277.48 1140.54 1472.69 1074.21"/><polygon class="cls-16" points="1472.69 1117.14 1472.69 1131.42 1277.48 1197.75 1277.48 1183.47 1472.69 1117.14"/><path class="cls-16" d="M1472.69,1160.08v14.28l-191.9,65.22a51.42,51.42,0,0,1-3.08-13.17Z"/><path class="cls-16" d="M1472.69,1202.92v14.28l-127.8,43.44h-38.21c-1,0-2-.1-3-.2Z"/><path class="cls-7" d="M867.84,456.14l-1.3-4.48c.48,1.65-2.5,6.2-3.19,7.63q-1.62,3.38-3.51,6.61a75.9,75.9,0,0,1-4.4,6.71,72,72,0,0,1-5,6.38,109,109,0,0,1-11.51,11.43,127.72,127.72,0,0,1-27.29,17.3,1.28,1.28,0,0,0,.54-.4c-2.75-.51-81.72-.58-83.38,1.27h-1.39L712,375.85a25.91,25.91,0,0,0,13.92,5.83c13.74,1.38,23-12.77,14.94-18-9-5.88-14.25-12.77-13.69-21.56,3-21.18,27.24-10.86,40.52-2.91,0,0,20.58,3.38,26.36-8.93A140.28,140.28,0,0,1,844.16,365c9.57-.46,41.3.42,53.74.79,3.15.14,5,.18,5,.18s8.15,2.68,13.28,18.27C928.06,420.21,897.26,465.12,867.84,456.14Z"/><path class="cls-17" d="M797.48,481.32a21.4,21.4,0,0,1,24.81,17.25,15.28,15.28,0,0,1,.29,3.35,131,131,0,0,1-37.17,14.69,20.72,20.72,0,0,1-5.18-10.48A21.36,21.36,0,0,1,797.48,481.32Z"/><path class="cls-10" d="M792,475.44l-.49,0-45.4-2.5a3.48,3.48,0,0,1-3.27-3.66A3.44,3.44,0,0,1,746.5,466l45.39,2.51a1.73,1.73,0,0,0,1.82-1.33c1.76-7.37,1.38-13.7-.94-15.75a3.47,3.47,0,1,1,4.59-5.2c6.32,5.58,4.28,17.64,3.1,22.56A8.68,8.68,0,0,1,792,475.44Z"/><path class="cls-10" d="M820.56,466.17a3.47,3.47,0,0,1-3.44-3c-.13-1-3.19-24.69-2.59-40.81a3.47,3.47,0,1,1,6.93.26C820.88,438.13,824,462,824,462.25a3.47,3.47,0,0,1-3,3.89A3.4,3.4,0,0,1,820.56,466.17Z"/><path class="cls-10" d="M763.58,503.68a3.47,3.47,0,0,1-3.17-2.06l-5.12-11.53a3.47,3.47,0,0,1,6.34-2.81l5.12,11.52a3.47,3.47,0,0,1-1.77,4.58A3.3,3.3,0,0,1,763.58,503.68Z"/><path class="cls-10" d="M747.6,430.82a3.47,3.47,0,0,1-3.47-3.47v-11.1a3.47,3.47,0,1,1,6.94,0v11.1A3.47,3.47,0,0,1,747.6,430.82Z"/><path class="cls-17" d="M785.84,385.43a21.36,21.36,0,1,1-17.25,24.8A21.37,21.37,0,0,1,785.84,385.43Z"/><path class="cls-15" d="M794,330.24c-5.78,12.31-26.36,8.93-26.36,8.93-13.28-7.95-37.52-18.27-40.52,2.91-.56,8.79,4.72,15.68,13.69,21.56,8.09,5.27-1.2,19.42-14.94,18A25.91,25.91,0,0,1,712,375.85l-10.32-89.08c.14,0,.28,0,.42,0,28-2.5,45-4.58,68.18,12C791.61,314,794,330.24,794,330.24Z"/><path class="cls-7" d="M984.9,1178.15c-5,21.88-41.71,30.71-52,22.29-1.8-1.48-3.56-2.87-5.27-4.21-22.3-17.06-36.54-21-41.21-21.78-.28,0-.51,0-.7-.09a4.73,4.73,0,0,0-1-.1h0l4.57-14.8,92.88-12.76,2.59,29.37Z"/><path class="cls-10" d="M758.81,357.91h-.25c-7-.75-13.33-8.89-14-9.81a2.31,2.31,0,0,1,3.68-2.8c1.58,2.08,6.6,7.55,10.85,8a2.31,2.31,0,0,1-.25,4.61Z"/><path class="cls-10" d="M734,442a3.47,3.47,0,0,1-3.27-2.31c-2.41-6.79-2.6-22.49-2.37-23.63a3.47,3.47,0,0,1,6.86.94c-.08,2.41.23,15.26,2,20.37A3.49,3.49,0,0,1,734,442Z"/><path class="cls-6" d="M897.26,513.54v27.57h-447L419,271.6H699.9l27.47,237H892.12A5.06,5.06,0,0,1,897.26,513.54Z"/><path class="cls-9" d="M542.16,412.84c2.3,15.63,11.41,26.59,20.35,24.47s14.31-16.51,12-32.14-11.41-26.58-20.34-24.46S539.86,397.21,542.16,412.84Z"/><path class="cls-10" d="M560.28,441h0c-10.13,0-19.19-11.65-21.55-27.69-2.59-17.63,3.84-33.45,14.65-36a13.41,13.41,0,0,1,3-.35c10.12,0,19.18,11.64,21.55,27.69,2.59,17.63-3.85,33.45-14.65,36A13,13,0,0,1,560.28,441Zm-3.87-57.12a6.27,6.27,0,0,0-1.43.16c-6.19,1.47-11.57,13.44-9.38,28.26,2,13.62,9,21.76,14.68,21.76h0a6.28,6.28,0,0,0,1.43-.17c6.19-1.46,11.56-13.43,9.38-28.25C569.09,392.06,562.05,383.92,556.41,383.92Z"/><polygon class="cls-5" points="261.52 575.15 131.33 575.15 131.33 541.12 1004.98 541.12 1004.98 575.15 282.33 575.15 261.52 575.15"/><path class="cls-10" d="M1604.78,814.19c-.92-1.71-3.93-3-6-3-12.08,0-22.44,13.55-30.76,24.42-6.53,8.46-12.07,16.14-16.38,26-3.23,7.4-6.29,14.43-11.84,19.1-7.54,6.34-17,10.64-26.18,14.8-11.47,5.23-23.31,10.64-32.19,20.12a59.74,59.74,0,0,0-9.57,14c-.93-2.22-1.11-5,0-9.11,1.8-6.76,6.62-13.32,12.17-20.86,7.58-10.36,16.23-22.16,19.19-38,.69-3.65.42-7.86-2.59-10.4-2.77-2.36-6.61-2.45-10-2.5,0,0,3.06-8.93,5.78-13.18,3-4.72,5.6-8.79,6.39-11.47,4.62-15.45,7.95-31.83,7.31-48a38.55,38.55,0,0,0-.79-7.64,3.53,3.53,0,0,0-5.18-2.26c-1.25.74-31.08,18.68-46.44,56.2a111.33,111.33,0,0,1-6.89,14.66,14.82,14.82,0,0,1-1.94,3c-1.21,1.29-1.58.78-2.82-.65-2-2.22-4.63-5.23-9-5.23-3,0-6,1.44-9.25,4.4-8.79,8-9.85,22.89-10.73,34.87-.41,5.83-.83,11.84-2.17,14.25-.56,1.06-1.34,3-2.55,3.42-1.38.51-2.77-.88-3.88-1.66-2.22-1.62-5-3.61-8.6-3.61-4.4,0-8.38,2.91-12.45,9.2-12.11,18.64-18.54,40-21.09,61.19-5-18.5-10.5-37.18-16.32-55.22l102.26-659.61a36.79,36.79,0,0,0-7.26-28.4c-19.94-25.81-62.81-14.34-66.74,18.08L1308,809.1c-5.5-9.58-11.19-19-17-28.08,2.4-19.38,1.52-39.13-3.06-56.84,6.34-.09,10.73-.56,12.21-1.57a2.31,2.31,0,0,1,.19-.14,3.45,3.45,0,0,0,1.06-3.56c-1.06-3.75-2.13-7.45-3.19-11.15-.78-2.64-8-26.37-9.76-32-.18-.56-15.68-45.75-15.82-46.21-5.18-14.06-10.64-28-16.51-41.77-5.32-12.67-11-25.2-17-37.6-5.51-11.33-11.29-22.57-17.39-33.58-5.6-10.13-11.48-20.12-17.67-29.88q-8.47-13.4-17.76-26.32-8.47-11.79-17.77-23-8.46-10.28-17.66-19.94A302,302,0,0,0,1100,374.05a237.6,237.6,0,0,0-39.92-21.33A210,210,0,0,0,1025.56,342a180.08,180.08,0,0,0-39.22-4.21,195.27,195.27,0,0,0-33.63,3c-5.32,1-10.59,2.18-15.82,3.56-4.39,1.16-8.74,2.59-13,4.12a146.42,146.42,0,0,0-15.4,6.38c-.05.1-.09.1-.14.1-3.84,1.94-8,4.11-10.87,7.4,0,0-40.56-1.16-51.29-.88A143.77,143.77,0,0,0,797,327.65c-1.44-5.13-6.66-18.77-24.75-31.73-23.4-16.74-41-15.3-67.62-12.95l-1.34-11.74a3.46,3.46,0,0,0-3.42-3.1H419a3.46,3.46,0,0,0-2.59,1.15,3.5,3.5,0,0,0-.84,2.73l26.65,229.55c-10.5-1.61-22.53-.87-37.14,2.41-20.91,4.67-42.93,10.17-62.08,21.55a19.55,19.55,0,0,0-9,11.84h-54.9c19.66-8.37,32.79-23.59,32.79-40.84V441a3.5,3.5,0,0,0-3.47-3.47H291.72a246.68,246.68,0,0,0,19.56-25.62c28.91-43,39.55-104,40-106.57a3.5,3.5,0,0,0-5.5-3.37c-.38.28-36.73,27.38-66.66,58.88-3.09,3.23,1.9,8,5.05,4.76,21.46-22.62,46.39-43,58.41-52.45-4.07,18.69-15.4,62.67-37.09,94.87-8.6,12.76-16.28,22.33-23.13,29.5H269.65a123,123,0,0,0,4.4-26.27c2.68-36.17-15.82-81.63-16.61-83.58a3.53,3.53,0,0,0-6.24-.41,288.29,288.29,0,0,0-13.46,27.38c-20.49-40.38-52.08-77.75-53.7-79.69a3.5,3.5,0,0,0-6.06,1.71c-.46,2.82-10.36,68.87,5.32,118.73,5.87,18.73,12.16,32.38,18.45,42.13H178a3.5,3.5,0,0,0-3.47,3.47v55.55c0,17.25,13.14,32.47,32.79,40.84h-76a3.5,3.5,0,0,0-3.47,3.47v34a3.49,3.49,0,0,0,3.47,3.47h41.95v679H3.47a3.47,3.47,0,0,0,0,6.94H1563.53a3.47,3.47,0,1,0,0-6.94H1461c9.12-7.54,15.13-20.86,15.13-35.94v-166.6a3.41,3.41,0,0,0-1.11-2.54c1.11-13.42,10-27,27.43-42.14,2.4-2.08,4.81-4.16,7.26-6.2,13.87-11.65,28.17-23.68,34.78-40.89,2.73-7.07,3.93-14.7,5.13-22,1.81-11,3.47-21.42,9.81-29.47a231.1,231.1,0,0,0,28.26-45.05c2.68-5.73,4.12-13,5.55-20.76,2.17-11.2,4.35-22.81,10.55-28.17C1605.15,816.41,1605.34,815.2,1604.78,814.19Zm-229,127A149.06,149.06,0,0,1,1384.3,915c1.52-3.42,4.48-11.15,8.23-16.51,2-2.92,4.35-5.14,6.75-5.51,3-.41,5.14,2.83,7.77,4.31,3.89,2.17,9,.37,11.89-3.06s3.84-8,4.35-12.39c1.57-13.32.23-28.45,9.29-38.35,3.34-3.6,5.6-2.31,7.87,1.16,2.68,4.26,9.43,3.75,13.18.46s5.41-8.32,7.17-13a127.85,127.85,0,0,1,42-56.66,106.5,106.5,0,0,1-17.44,65.44c-2.82,4.21-5.69,10.41-1.71,13.56,5.18,4.11,10.91-1.9,12.76,5.68,1.3,5.19-2.82,12.82-5.13,17.12-6,11.1-15.08,20.12-21.42,30.94-5.31,9-8.6,21.42-1.48,29-4.44,10.27-6.93,21.28-10.82,31.78s-9.43,20.86-18.41,27.52c-8.74,6.47-19.84,8.88-29.32,14.2a53.69,53.69,0,0,0-23.73,27.66c-3-23.08-13.5-45-14-68.27C1372,960.34,1373.52,950.63,1375.79,941.15Zm6.15,110.22h-13.23c-6.75-23.59-14.57-47.18-22.2-70-3-9.15-6.06-18.27-9-27.29-3.75-11.42-9.3-25.8-16.33-42.78,0,0,7-28.49,9.44-42,4.25,9.94,8.09,19.89,11.33,29.74C1359,950.68,1372.78,1008.63,1381.94,1051.37ZM1385,232a30.08,30.08,0,0,1,29.83-26.46c18.36,0,33.35,16.42,30.43,34.83L1345,886.89c-8.23-22.66-19.15-45.51-31.31-67.57ZM1327.5,862.2s-5.83,28.81-9.16,42.23c-6-14.39-18.41-43.2-18.73-43.2l6.24-41.82C1313.72,833.43,1321,847.77,1327.5,862.2Zm-25.35-49.4-5.92,40.89c-27.29-60.87-56.8-121.79-57.26-122.76a2.32,2.32,0,1,0-4.16,2c.79,1.57,78.81,162.53,98.29,222.47,3,9.07,6,18.23,9,27.34,7.45,22.43,15.13,45.51,21.79,68.59h-13c-3.88-6.89-8.09-14.52-12.49-23-6.29-12.12-13-26-19.79-42.18-5.46-12.9-11-27.34-16.42-43.52-.33-1-.65-1.95-1-2.92-22-66.56-54.86-155.5-79-219.61-.92-2.45-12.53-33.07-16.56-43.61,7.73,9.16,18.32,22.15,30.39,37.93,1.85,2.4,3.75,4.9,5.69,7.44C1260.8,747.35,1282.73,778.94,1302.15,812.8Zm-32.79,226.41a71.78,71.78,0,0,1-9.44-12.54c-2.91-4.67-5.69-9-10.68-13.09a18.18,18.18,0,0,0-12-4.35c-5.82,0-11.37,1.9-17.2.37-1.25-.32-3.29-2.73-5.09-4.85-3.65-4.21-8.19-9.48-15.22-11-7.31-1.48-13.64,1.57-19.75,5.23-3.74,2.22-7.31,4.34-11.24,4.62-3.14.28-6.52.37-10,.37a178.72,178.72,0,0,1-27.61-2.27c16.14-10.91,58.93-37.14,97.82-37.14,11.61,0,22,2.36,31,7a128.85,128.85,0,0,1,12.45,7.35c2.08,3.47,4.07,6.89,6,10.22,13.74,23.69,28.63,45.89,41.67,62.26h-37.28A139.44,139.44,0,0,1,1269.36,1039.21Zm5,14.19a3,3,0,0,0-.32,1.44v120.49a110.8,110.8,0,0,0-68.87-34.65V1004.52a48,48,0,0,1,4.49,4.76c2.68,3.15,5.22,6.11,8.51,7,4.58,1.3,9.66.93,14,.37a34,34,0,0,1,5.08-.51,11.28,11.28,0,0,1,7.64,2.78c4.11,3.37,6.47,7.07,9.2,11.42a80.11,80.11,0,0,0,10.31,13.65C1267.88,1047.62,1271.21,1050.72,1274.35,1053.4Zm-76.13-52.86V1140h-10.36V1002.48C1191.19,1000.82,1194.57,999.75,1198.22,1000.54ZM1059.46,865.16a3.22,3.22,0,0,0-3.46-.42c-2.59,1.16-10,4.35-13.37,4.86-3.52.37-7.68-1.39-10.55-3.33-.69-.47-5.55-6.53-4.53-7.13a3.66,3.66,0,0,1,1.25-.37c11.75-2.59,22.48-22.66,22.94-23.54,1.11-2.08,4.58-5.59,8.37-8.83l58.37,4.21a4.38,4.38,0,0,0,.42,1.48c7,12.85,1.66,75-1,98.19a20.93,20.93,0,0,1-10.64,18.18c-9.62,5.69-24,5.78-34.83.28-11-6.16-13.83-65.55-11.61-80.35A3.43,3.43,0,0,0,1059.46,865.16Zm-3.56,55.45h-18c-17.85,0-27.43-22-15.82-35.29a21.23,21.23,0,0,1,15.82-7.21h15.5A291.31,291.31,0,0,0,1055.9,920.61Zm-45.19-346.38c-.13-.19-.18-.33-.27-.47l-.05,0c-.69-.88-1.94-2.22-1.94-2.22V542.73c4.25,7.21,8.46,14.29,12.62,21.14,2.36,3.88,21,34,26.18,42.18,2.18,3.42,7.73,12.07,7.73,12.07a16.37,16.37,0,0,1,2.54,9.62l-4.62,90.56v.05c-.23,0-.6.09-1.16.19-2,.41-6.1,1.2-9.67,1.85-.88.18-1.71.32-2.45.46l-3.7.65C1050.81,658.08,1022.46,596.2,1010.71,574.23Zm21.51,128.44h-.14l-69,11V578.34h42.09C1008.77,584.36,1040.45,638.19,1032.22,702.67Zm-1.11,7.22h.05c-.14.78-.33,1.8-.51,2.91-.09.42-.14.83-.23,1.3a5.42,5.42,0,0,1-.19.87c-.92,5-2,11-1.75,11.57h0l-65.4,15V720.71Zm21.28,18.27-3.38,67-86,7.17V748.6Zm2.36,90.93.69-13.92s71.23,6.43,71.55,6.15c-.69,5.5-1.2,9.25-1.66,12.81Zm160.49-65.59a2.24,2.24,0,0,0-3.19.51l-11.38,16.38a33,33,0,0,1-24.46,14.1l-39.46,3.29c.74-6.11,5.74-54.63,7.17-73,0,0,14.76-.09,17.44.09,17.71,1.34,35.52,2.5,53.14,4.58,13.69,36.4,30.44,81.27,46.44,125.62-.92,1.39-1.94,2.78-3,4.12-6.2,8-15.22,16.93-26.92,21.28a384.6,384.6,0,0,0-34-23.08,3.42,3.42,0,0,0-4.3.6,3.48,3.48,0,0,0-.37,4.3c.19.23,5.41,8.14,13.55,20.67,0,0-76.64,0-76.64-.32.37-16.42-.41-33.44-3.37-41.49l2.08.14h.23a3.5,3.5,0,0,0,3.47-3s2.73-21,4.48-35.8l40.34-3.38A37.62,37.62,0,0,0,1204.47,773l11.38-16.37A2.22,2.22,0,0,0,1215.24,753.5Zm29.65,117.67a78.72,78.72,0,0,0,18.55-17.76c.09-.14.23-.28.32-.42q3.27,9.16,6.48,18.18Zm27.8,6.94c5.18,14.61,10.13,28.86,14.75,42.5h-1.8c-14.06-16.37-30.16-30.85-44.77-42.5Zm-143.71,0h80.34c7.63,11.75,17.16,26.55,27.25,42.5H1125.93C1126.9,910.53,1129,878.34,1129,878.11Zm112,49.44c8,12.77,16.19,26,23.91,38.81-.6-.37-12.07-5.51-17.76-6.8a82,82,0,0,0-18.18-1.94,112.19,112.19,0,0,0-23.77,2.68V927.55Zm-53.1,0h10.36V962c-3.51.88-6.94,1.95-10.36,3.1ZM1287,990.13c-.88-1.48-1.76-3-2.64-4.49-2.17-3.74-4.39-7.58-6.7-11.47-24-40.47-55.37-88.85-70.49-112.07,21.69,14.62,64.06,46.12,88.75,83.72,15.41,45.79,31.09,76.92,47,105.55h-13.88C1316.21,1036,1301.14,1014,1287,990.13Zm-2.13-218.68c-11.56-17.67-23.22-34.18-34.09-48.89,4.21.32,14.57,1,15.73,1.06,3.88.19,13.73.56,14.24.56v.05C1284.81,738.7,1286.06,755,1284.9,771.45ZM910.58,361.83a67.93,67.93,0,0,1,10.87-5.27c11,14.9,13.92,36,7.95,58.1-6.29,23.45-21.46,42.78-39.59,50.46-1.8.78-1.62,3.28.05,4.34s6.38-2.26,7.81-3.09a67.31,67.31,0,0,0,15.73-12.72,90,90,0,0,0,20.49-37.79c6.15-22.9,3.24-45-7.91-60.92,4.9-1.71,9.9-3.23,14.94-4.48A185.2,185.2,0,0,1,1052.06,357a209.43,209.43,0,0,1,23,10.31c60.13,31.45,139.82,108.93,202.4,296.9,0,.23,13,41.35,16.24,52.91-3.24.28-9.81.42-22.8-.18-.84,0-22.44-1.48-25.58-1.71-26.37-34.83-46.9-57.64-47.41-58.24-2.27-2.49-7.17-.37-5.83,3.47,0,0,12.3,32.1,19.7,51.76-2.08-.23-4.25-.42-6.42-.65-12.12-1.29-24.24-2.63-36.41-3.28-8.14-.42-16.32-.6-24.51-.42,3.15-43.62,4.3-86.63-.65-110-.64-2.83-9.25-26.14-12-32.8-5.13-12.49-23.82-54.48-26.22-59.71-6.94-15-50.14-100-52.41-104a346.4,346.4,0,0,0-19.38-30.81c-2.59-3.56-8.37.47-5.59,4.12a340.14,340.14,0,0,1,19,30.16c2.27,3.93,45.24,88.48,52.13,103.46,2.4,5.18,21,47,26.08,59.44,2.73,6.61,11.06,29.14,11.61,31.59,4.49,21.37,3.8,60,1.07,100.32-.23,3.7-1.57,19-2.69,30.2-2.54,25.67-6.84,68.92-7.77,76.37l-71.87-5.92,3.33-65.36,1.34-26.36,4.07-80.43a23.4,23.4,0,0,0-3.61-13.7s-5.59-8.6-7.72-12c-5.18-8.19-23.78-38.21-26.14-42.09-6.29-10.36-40-69.8-45.18-80.11-2.32-4.76-4.77-9.85-6.85-14.62-4.58-10.31-7.31-18.22-8.19-23.49-.74-4.3-7.63-3.52-6.84,1.11,1,6,3.79,14.2,8.69,25.2,2.13,4.86,4.63,10,7,14.85,5.22,10.46,28.58,52.22,29.74,54.21a1,1,0,0,0-.37,0H900.73V513.54a8.55,8.55,0,0,0-8.61-8.41s-67.94.09-67.8,0c19.75-11.57,34.45-27.76,42.64-45.66a30.3,30.3,0,0,0,8.6,1.3c9.62,0,19.38-4.58,27.85-13.18,13.46-13.79,24.23-39.78,16.09-64.43-3.84-11.66-9.29-16.84-12.62-19.06C908.13,363.31,909.37,362.53,910.58,361.83ZM892.12,512.06a1.6,1.6,0,0,1,1.67,1.48v24.1H734.26l0-.28-3-25.3Zm10-142.69c1.48.79,7,4.35,10.78,16,7.21,21.88-2.46,45.1-14.53,57.4-8.92,9.11-19.33,12.86-28.77,10.27a78.93,78.93,0,0,0,4.77-27.34c0-13.87-4.3-28.35-11.06-40.42a115.62,115.62,0,0,0-11.19-16.93C861,368.36,902.16,369.37,902.16,369.37ZM795.55,334.64c18.5,9.16,36.12,20.72,49.58,36.35a96.56,96.56,0,0,1,15.77,25.12,76.49,76.49,0,0,1,6.43,31.22c-.46,30.43-21.74,57.58-48.19,72.62-6.53,3.7-11.11,4.9-11.11,5.18-3.33,0-43.2,0-59.52,0a3.5,3.5,0,0,0-.1-3.43c-2-3.28-5-9.9-4.67-13.5a3.48,3.48,0,1,0-6.93-.74c-.65,6.84,4.57,16.05,5.59,17.67H730.47q-7.15-61.33-14.25-122.57a23.91,23.91,0,0,0,23.18-.84c5-3.05,8.92-8.88,7.49-14.57-2.18-8.65-14.8-11.47-16.7-20.16-1.71-7.68,6.89-14.48,14.76-14.11,9.8.51,15.72,9,25,10a35.15,35.15,0,0,0,14.2-1.34,111.37,111.37,0,0,0,11.29-6.75C795.5,334.73,795.55,334.68,795.55,334.64Zm-27.34-33.07c11.8,8.42,17.48,17.16,20.17,22.8,1.34,2.91,2.73,5.27,0,7.63-5.73,5.14-16.88,4.16-19.61,3.84-2.91-.32-7.72-4.35-10.77-5.69-4.86-2.13-10.09-4-15.45-4.21-10.46-.32-17.44,5.6-18.92,15.91-.6,9.53,4.39,17.58,15.26,24.66.51.37,2.13,1.43,1.11,4.25-1.25,3.52-6.38,8.19-13.83,7.45a21.16,21.16,0,0,1-11-4.26l-9.76-84C731.26,287.55,747,286.35,768.21,301.57ZM422.84,275.06h274l30.39,262.3,0,.28H453.32l0-.28ZM346.53,531.49c18.22-10.82,39.63-16.19,60-20.72,14.66-3.29,26.41-3.93,36.45-2l3.33,28.63H341.39A12.65,12.65,0,0,1,346.53,531.49ZM238.29,372.24c1.11-3.19,2.32-6.24,3.52-9.2a281.11,281.11,0,0,1,11.84-25.72,259.73,259.73,0,0,1,11,39.87c.6,3,1.07,6.06,1.48,9.11a118.28,118.28,0,0,1,1.07,24.42c-.79,10.83-2.41,19.85-4.77,26.78h-32.1c-1.34-6.42-1.89-15.4-1-27.79C230.2,397.63,233.9,384.41,238.29,372.24Zm-48.38,21.05c-12.07-38.44-8.23-88.48-6.1-107.63,10.45,13.13,34.83,45.14,50.41,77.52-5.59,14.24-10.68,30.8-11.79,46q-1.19,16.79.88,28.3H210.13C202.73,427.28,195.93,412.39,189.91,393.29Zm5.83,129.46c-8.05-6.43-14.29-15.64-14.29-26.23V444.44H304.94v52.08c0,21.42-22.57,34.23-40.84,38.53a94,94,0,0,1-21.55,2.5C225.76,537.5,208.6,533,195.74,522.75Zm92,734.63c-7.72,0-14.43-5.32-15.54-12.35l-.55-3.42,68.41-78.91L396,1213.39l-40.24,44ZM330.2,976.07h74.51L288,1106.09l-42.51-38.58Zm-87.33,84.09-13.36-84.09h91.21Zm96.62,92.64-46.34-42L414,976.07h77.15ZM499.3,977.18l-23.91,150.28-74.7,80.8-56.06-50.83Zm-216,134.09-27.47,30.62L245.56,1077Zm-23.72,36.81,28.86-32.19L335,1158.07l-64.57,75.21-13.36-84A3.65,3.65,0,0,0,259.62,1148.08Zm181.54,109.3H364.7L401.1,1218l43.06,39.08A15.65,15.65,0,0,1,441.16,1257.38Zm9.94-3.33-45.28-41.12,67.62-73.12L456.7,1245A13.85,13.85,0,0,1,451.1,1254.05ZM568,1182.64l183,49.44a92.73,92.73,0,0,0-1.43,12.72s-190.1-51.53-195.79-53c2.22-10.5,11-44.31,34.09-44.31a32.4,32.4,0,0,1,13.13,3.1c5.92,2.59,13.88,4.25,23.73,4.95a22.28,22.28,0,0,0,6.52,10.73c12.4,12.07,27.15,11.75,42.88,9.25,14.38-2.27,28.77-5,42.92-8.42.37-.09,3.24-1.06,3.42-.88a180.55,180.55,0,0,1,15.41,18.92c4.85,6.71,16.51,9.11,25.81,9.11,11.88,0,26.54-3.84,34.13-14.34a20.37,20.37,0,0,1,1.57,4.63,66,66,0,0,1,1.71,13.92s-4.85-.14-6.66-.42c-13-2-23.35,1.25-30.75,9.53-4.91,5.55-7.91,12.67-9.72,20l-182.79-49.4C566.36,1177.41,565.12,1181.89,568,1182.64Zm148.75-20.17c-15.45,3.79-51.9,10.87-59.39,10.41a35.12,35.12,0,0,1-22.85-9.9,20.4,20.4,0,0,1-4.9-7.17c1.89,0,3.88.09,5.92.09,27.24,0,57.12-5.73,63.18-7h0A86.15,86.15,0,0,1,716.78,1162.47Zm-12.68-18.64,4.95-7.86,85.9,18.87L791.52,1174c-5.59,9.81-19,13.32-29.78,13.32-9.25,0-17.53-2.54-20.17-6.2C724.92,1157.89,711.23,1147.67,704.1,1143.83Zm180.25,19.8-2.5,8.18c-7.44,3.7-47.45,22.94-75.71,26.18a72.23,72.23,0,0,0-1.94-15,24.78,24.78,0,0,0-5.28-10.92s2.78-15.49,2.82-15.68c4.45,2.18,6.85.28,7.45-1.57L860.53,999l5.83,163.27a3.53,3.53,0,0,0,3.47,3.37C870,1165.61,884.35,1163.63,884.35,1163.63Zm-11.89-25.26,65.82-9.25,2.22,19.8-67.34,9.25Zm12.86,39.45a82.67,82.67,0,0,1,21,8.33c-5.23,2.87-13.19,6.94-21.47,11-13.87,6.8-28.63,13.55-33.16,14.57a35.45,35.45,0,0,1-24.65-3.56,19.64,19.64,0,0,1-6.57-5.69c25.44-6,53.79-19.24,62.86-23.68Zm70.77,62H767.93a2.32,2.32,0,0,0,0,4.63H956.09v12.62H793.19c-17.49-.23-30.71-.14-36.54,0-.56-8.51-.88-32.33,10.27-44.82,5.82-6.57,13.92-8.93,24.56-7.31a47.26,47.26,0,0,0,7,.51,90.14,90.14,0,0,0,17.16-1.94,22,22,0,0,0,9.06,8.69,39.84,39.84,0,0,0,19.34,5,38.19,38.19,0,0,0,8.6-1c5.36-1.2,23.91-9.75,39.41-17.48,7.67-3.84,14.61-7.45,18.82-9.85,3.61,2.22,7.54,4.86,11.84,8,2.5,1.85,5.18,3.93,8,6.2,3.14,2.54,8,3.93,14.06,3.93a49.1,49.1,0,0,0,11.33-1.44Zm0-41.4a43.34,43.34,0,0,1-11.33,1.67c-4.3,0-7.87-.88-9.67-2.41l-2.87-2.31c-12.58-9.9-22.85-15.86-30.57-19.38a69.85,69.85,0,0,0-12.49-4.49l2.73-8.92,64.2-8.79Zm0-51.66-11.15,1.53-2.08-19.85,13.23-1.85Zm0-24.84-13.69,1.94L910.07,816.27c-.33-3.15,3.1-5.14,5.78-5.37l40.24-3.37Zm0-319.05-40.66,3.38c-5.32.51-10.54,4.67-9.94,10.45l32.28,307.77-65.49,9.2L866.82,980,866.13,960,861,814.88c-1.34-21.18,19.79-48.06,41.16-52.31l54-12.35Zm0-59.8-55.41,12.67c-24.65,4.9-48.2,35-46.67,59.48L859.84,979l-56.25,170.63-117.2-25.81,9.3-24.33S797.21,1124,797.4,1124a2.32,2.32,0,0,0,.55-4.58l-100.6-24.28L823.58,764.46c4.25-12.39,25.2-25.85,38.76-27.75l93.75-14.89Zm0-28.31-94.77,15.08C845.55,732,822.23,747,817.05,762.11l-138.57,363a3.47,3.47,0,0,0,2.5,4.63l20.86,4.58-4.9,7.86c-6.62,1.3-35.67,6.75-61.38,6.75-14,0-24.65-1.57-31.68-4.71a40.32,40.32,0,0,0-16-3.66c-33.12,0-41.17,51.11-41.49,53.28a3.44,3.44,0,0,0,2.59,3.89c.14,0,200.5,54.21,200.5,54.21,0,2.13.1,4,.19,5.41H457.86a20.46,20.46,0,0,0,5.68-11.24l18.51-116.33c0-.09,0-.23,0-.32L507,973.16a3.51,3.51,0,0,0-3.43-4H225.44a3.5,3.5,0,0,0-3.43,4l43.39,273a20.41,20.41,0,0,0,5.69,11.24H180.2v-679h81.31c4.49,0,4.49-6.93,0-6.93H134.78V544.3h866.73v27.11H282.33c-4.49,0-4.49,6.93,0,6.93H956.09ZM963,1145.86v-20.21l34.78-4.85a.68.68,0,0,0,.28-.1l1.89,20.08Zm18.36,32a19.52,19.52,0,0,1-1.8,4.49,18.63,18.63,0,0,1-2.27,3.42c-3.52,4.39-8.74,7.82-14.29,10.27v-43.2l16-2.18,2.13,24.33Zm16,79.23c-5.36.05-17.25.14-29,0H963v-12.62h35.84C998.46,1250,997.81,1254.47,997.39,1257.1Zm1.81-17.25H968.12a38.61,38.61,0,0,1,3.79-13.09,2.3,2.3,0,1,0-4.12-2,43.23,43.23,0,0,0-4.39,15.12H963v-36.31c10.36-3.79,20.26-10.73,24.19-21.09a23,23,0,0,1,2.68,4,65.51,65.51,0,0,1,5,12,61.14,61.14,0,0,0-20.77,16.28,2.39,2.39,0,0,0,.33,3.28,2.44,2.44,0,0,0,1.48.51,2.34,2.34,0,0,0,1.8-.83A56,56,0,0,1,996.24,1203C999.43,1215.8,999.75,1229.26,999.2,1239.85Zm57.17,5.55a20.42,20.42,0,0,0,6.42,12h-58.41c1.94-11.84,6.06-47.83-8.37-74.24-2.32-4.2-5-7.26-8-9.2l-2.13-24.24,18.32-2.49a3.49,3.49,0,0,0,3-3.8s-12.4-132.47-12.4-132.7c-.41-4.39-7.3-3.84-6.89.65l9.81,104.9c-.51,0-34.69,4.72-34.69,4.72V807l85.75-7.17-1.16,22.34a3.43,3.43,0,0,0,3.1,3.61,30.69,30.69,0,0,0-5.13,6.24c-3.1,5.92-11.66,18.55-18.27,20-9.62,2.09-6.57,10.6-2.78,16.7a7.16,7.16,0,0,0,1.85,1.9l-40.75-.51c-.41-8.56-1.15-22.29-5.41-35.11-1.38-4.21-8-2.08-6.56,2.18,4.07,12.3,5.36,40.42,6,41.72,0,0,4.49,108.09,4.49,108.28.18,4.43,7.17,4.2,6.94-.28,0,0-4.58-109.67-4.58-109.85l33.81.46c-3,1.16-6.71,7.77-7.63,9.71-8.75,18.32,4.9,40.38,25.25,40.38H1057c2.41,13.09,6.25,24,12.17,27.29a46.44,46.44,0,0,0,20.9,4.9,40.49,40.49,0,0,0,20.77-5.36,27.6,27.6,0,0,0,14-23.59c.09-.69.18-1.8.37-3.24h55.73v40c-32.79,12.4-59.06,32.15-60.63,33.35a3.38,3.38,0,0,0-1.3,3.52,3.51,3.51,0,0,0,2.59,2.63,188.4,188.4,0,0,0,37.14,3.89c3.66,0,7.17-.14,10.55-.37,4.44-.32,8.14-2.08,11.65-4.07v134.22c-46.11,5-83.81,38.53-95.42,82.57a18.53,18.53,0,0,0-5.36-1.62,20.82,20.82,0,0,0-23.77,23.77Zm31,5.78a13.77,13.77,0,0,1-12.72,4.63,13.83,13.83,0,0,1,2.22-27.48,18.24,18.24,0,0,1,2.18.14,14.07,14.07,0,0,1,11.47,11.47A13.91,13.91,0,0,1,1087.4,1251.18Zm3.61,6.2a14.11,14.11,0,0,0,1.66-1.71,20.83,20.83,0,0,0-1.06-28.17c10.92-46.11,52.22-80.53,101.43-80.53a103.73,103.73,0,0,1,81,38.9v35.57c0,15.08,6,28.4,15.12,35.94Zm378.16-35.94c0,19.7-11.52,35.71-25.67,35.71H1306.64c-14.15,0-25.67-16-25.67-35.71V1058.31h188.2Zm117.25-377c-1.39,7.26-2.68,14.16-5,19.15A220.61,220.61,0,0,1,1554,907.29c-7.44,9.44-9.34,21.23-11.19,32.66-1.16,7-2.31,14.2-4.77,20.63-6,15.54-19.56,27-32.74,38.06q-3.75,3.12-7.36,6.25c-12.3,10.68-28,26.64-29.83,46.48h-47.22c3.7-8.93,11-17.9,19.89-24.24,4-2.86,8.32-5.55,12.48-8.14,7.17-4.48,14.62-9.11,21-14.94,9.85-8.88,17.81-20.81,25-37.51a2.3,2.3,0,1,0-4.21-1.85c-7,16.1-14.57,27.52-23.91,35.94-6.15,5.55-13.37,10.08-20.4,14.43-4.21,2.64-8.55,5.32-12.72,8.28-8.37,6-17.85,16.05-22.2,28h-24c-1.62-15.08,9.25-25.81,16.51-31.22,5-3.75,10.87-6.24,17-8.84,6.48-2.77,13.23-5.64,19.06-10.12,13.78-10.69,19.1-27.48,24.28-43.67,1.57-5,3.19-10.08,5-15,.88-2.36,1.85-4.67,2.92-6.89a56,56,0,0,1,9.85-15.22c7.91-8.51,18.64-13.41,30-18.55,9.58-4.35,19.52-8.88,27.8-15.82,6.8-5.73,10.31-13.83,13.74-21.64,2.68-6.15,5.18-11.94,9.15-16.52,2-2.31,4.12-5.08,6.34-8,6-7.82,13.14-17.21,20.26-20.49C1589.89,826.4,1588.13,835.56,1586.42,844.48Z"/></g></g></svg>