<svg xmlns="http://www.w3.org/2000/svg" viewBox="0 0 1833.52 1830"><defs><style>.cls-1{fill:#f2e6dc;}.cls-2{fill:#d3bba3;}.cls-3{fill:#e6d0be;}.cls-4{fill:#fff;}.cls-5{fill:#363e44;}.cls-6{fill:#efbc73;}.cls-7{fill:#d87355;}.cls-8{fill:#e2a18d;}.cls-9{fill:#b77250;}.cls-10{fill:#84524d;}.cls-11{fill:#8b865c;}</style></defs><g id="Layer_2" data-name="Layer 2"><g id="Illustration"><g id="High_stress_levels" data-name="High stress levels"><ellipse class="cls-1" cx="917.41" cy="914.46" rx="916.1" ry="914.46"/><path class="cls-2" d="M1056.85,1452.82h-23.21a1,1,0,0,1-1-1V1054a1,1,0,0,1,1-1h23.21a1,1,0,0,1,1,1v397.8A1,1,0,0,1,1056.85,1452.82Zm-22.21-2h21.21V1055h-21.21Z"/><path class="cls-2" d="M1771.79,1452.82h-23.2a1,1,0,0,1-1-1V1054a1,1,0,0,1,1-1h23.2a1,1,0,0,1,1,1v397.8A1,1,0,0,1,1771.79,1452.82Zm-22.2-2h21.2V1055h-21.2Z"/><rect class="cls-2" x="997.18" y="1035.23" width="815.5" height="53.04"/><rect class="cls-2" x="1080.21" y="703.61" width="370.21" height="262.52" transform="translate(2530.62 1669.73) rotate(180)"/><path class="cls-2" d="M1226.34,971.69h11a14.88,14.88,0,0,0,14.89,14.88h26.24a14.89,14.89,0,0,0,14.89-14.88h11l11,58.24v4.87h-99.86v-4.87Z"/><rect class="cls-3" x="1581.17" y="1343.01" width="242.64" height="173.31" transform="translate(-11.65 13.99) rotate(-0.47)"/><path class="cls-2" d="M1679.56,1363a20.81,20.81,0,0,1-20.79-20.62l-.15-18.24a20.81,20.81,0,0,1,20.62-21l41.37-.34h.17a20.8,20.8,0,0,1,20.78,20.61l.15,18.25a20.79,20.79,0,0,1-20.61,21h0l-41.37.34Zm41.53-1.34h0Zm-.31-56.81h-.16l-41.37.34a18.8,18.8,0,0,0-18.63,18.93l.15,18.25a18.82,18.82,0,0,0,18.79,18.63h.15l41.37-.34a18.78,18.78,0,0,0,18.63-18.94l-.15-18.25A18.81,18.81,0,0,0,1720.78,1304.89Z"/><path class="cls-2" d="M1702.14,1441.7a1,1,0,0,1-.61-.2l-107.31-81a1,1,0,0,1-.2-1.41,1,1,0,0,1,1.4-.19l106.7,80.59,104.25-82.39a1,1,0,0,1,1.24,1.57l-104.85,82.86A1,1,0,0,1,1702.14,1441.7Z"/><rect class="cls-2" x="1685.46" y="1429.74" width="34.19" height="18.04" transform="translate(-11.73 13.99) rotate(-0.47)"/><rect class="cls-3" x="1506.36" y="824.26" width="279.81" height="54.41"/><circle class="cls-1" cx="1738.06" cy="854.31" r="15.55"/><rect class="cls-3" x="1461.45" y="715.44" width="279.81" height="54.41"/><circle class="cls-1" cx="1693.15" cy="745.49" r="15.55"/><rect class="cls-3" x="1498.75" y="979.72" width="279.81" height="54.41"/><circle class="cls-1" cx="1730.44" cy="1009.77" r="15.55"/><path class="cls-2" d="M1762.86,931.49H1483a1,1,0,0,1-1-1V876.08a1,1,0,0,1,1-1h279.82a1,1,0,0,1,1,1v54.41A1,1,0,0,1,1762.86,931.49Zm-278.82-2h277.82V877.08H1484Z"/><circle class="cls-3" cx="1714.74" cy="906.13" r="15.55"/><rect class="cls-2" x="1512.8" y="927.9" width="279.81" height="54.41"/><circle class="cls-3" cx="1744.5" cy="957.95" r="15.55"/><rect class="cls-2" x="1480.45" y="772.44" width="279.81" height="54.41"/><circle class="cls-3" cx="1712.15" cy="802.49" r="15.55"/><rect class="cls-2" x="1485.41" y="645.73" width="279.83" height="67.37"/><rect class="cls-4" x="1484.76" y="654.8" width="271.41" height="52.47"/><path class="cls-3" d="M1485.41,664.87a1,1,0,1,1,0-2l262.3-1.29h0a1,1,0,0,1,1,1,1,1,0,0,1-1,1l-262.3,1.29Z"/><path class="cls-3" d="M1745.67,682.36h0l-257.52-.65a1,1,0,0,1-1-1,1,1,0,0,1,1-1h0l257.52.65a1,1,0,0,1,0,2Z"/><path class="cls-3" d="M1488.15,699.2a1,1,0,0,1,0-2l260.25-1.94h0a1,1,0,0,1,0,2l-260.26,1.94Z"/><path class="cls-4" d="M1734,600.6c-124.09,11.53-214.11,9.62-285.5.35v-7.77c90.23,6.63,183,7,285.5-.36Z"/><path class="cls-4" d="M1742.35,592.32c-120.86,8.93-208.07,8.29-277.25-2.47l.15-7.77c87.56,8.51,177.84,8.25,277.65,3Z"/><path class="cls-4" d="M1754.5,581.27c-120.86,8.93-208.06,8.29-277.25-2.47l.16-7.77c87.56,8.51,177.83,8.25,277.65,3.05Z"/><path class="cls-4" d="M1737.93,575.74c-120.86,8.93-208.07,8.29-277.25-2.46l.15-7.77c87.56,8.51,177.84,8.25,277.65,3Z"/><path class="cls-4" d="M1739.76,645.08q-152.94,6.49-267.73,0V603.63q121.38,11.63,267.73,0Z"/><path class="cls-4" d="M1696.49,558.53c-97,10.78-187.09,15.59-265.22,0V548.12c67.6,15.36,157,13.94,265.22,0Z"/><path class="cls-4" d="M1641.2,542.52c-97.57-1.85-187.54-8.72-263-34.28l1.34-10.33c65,24,153.84,34.12,263,34.28Z"/><path class="cls-5" d="M1448,762.83h0c19.07,13.47,46.65,7.21,61.6-14l119-172.79-67-47.34-121,171.37C1425.55,721.28,1428.88,749.36,1448,762.83Z"/><circle class="cls-6" cx="1220.19" cy="366.34" r="77.22" transform="translate(538.62 1442.69) rotate(-74.37)"/><polygon class="cls-7" points="1594.85 423.27 1547.17 557.9 1160.98 533.53 1279.39 199.16 1594.85 423.27"/><rect class="cls-6" x="1568.38" y="434.69" width="91.84" height="142.45" transform="matrix(-0.94, -0.33, 0.33, -0.94, 2967.11, 1521.69)"/><rect class="cls-7" x="1570.27" y="530.46" width="65.32" height="25.09" transform="translate(2932.64 1589.97) rotate(-160.5)"/><rect class="cls-7" x="1583.21" y="493.92" width="65.32" height="25.09" transform="translate(2969.98 1523.3) rotate(-160.5)"/><rect class="cls-7" x="1596.15" y="457.38" width="65.32" height="25.09" transform="translate(3007.32 1456.63) rotate(-160.5)"/><path class="cls-5" d="M1156.92,278.66a1,1,0,0,1-.89-.54L1130.1,228l-35.16,31.37L1046.4,205a1,1,0,0,1,1.49-1.33l47.21,52.9,35.59-31.76,27.12,52.4a1,1,0,0,1-.43,1.34A1,1,0,0,1,1156.92,278.66Z"/><path class="cls-5" d="M1074.83,407.25,1010,398.93a1,1,0,0,1-.87-1.12,1,1,0,0,1,1.12-.86l62.52,8-1.18-34.78,46.9-.42h0a1,1,0,0,1,0,2l-44.85.4Z"/><path class="cls-5" d="M1046,329.76l-50.26-31a1,1,0,1,1,1.05-1.7l48.38,29.8,16-33,32.44,15.33a1,1,0,0,1,.47,1.34,1,1,0,0,1-1.33.47l-30.64-14.48Z"/><polygon class="cls-7" points="555.05 33.09 535.29 185.89 643.3 218.41 599.6 337.69 711.69 194.14 585.94 163.25 555.05 33.09"/><polygon class="cls-7" points="537.41 370.63 464.6 328.71 493.28 238.26 347.68 125.75 453.57 262.53 429.31 355.19 537.41 370.63"/><polygon class="cls-7" points="724.93 357.39 718.31 286.8 799.94 284.59 784.5 172.08 925.69 66.18 826.41 176.49 839.65 302.24 744.78 311.06 724.93 357.39"/><path class="cls-7" d="M1814.8,1826.2a583.32,583.32,0,0,0-107.53-298.85L1234.09,1826.2Z"/><path class="cls-3" d="M647.24,1826.2h581.57L767,1510.88C698.82,1599.47,655.44,1706.85,647.24,1826.2Z"/><path class="cls-8" d="M1434.93,1318.17a587.18,587.18,0,0,0-359.53-15.61l154.22,521.93Z"/><path class="cls-2" d="M1229.62,1824.71l-154.22-522c-124.25,34.24-232,108.62-308.44,208l461.85,315.48h.29Z"/><polygon class="cls-7" points="1229.1 1825.76 1229.99 1825.76 1229.62 1824.49 1229.1 1825.76"/><path class="cls-6" d="M1230,1826.2h4.1l473.18-299.07a587.66,587.66,0,0,0-272.34-208.85l-205.31,506.49Z"/><path class="cls-5" d="M1262,1826.2a38.51,38.51,0,0,0-76.63,0Z"/><rect class="cls-5" x="1360.9" y="1618.38" width="22.82" height="280.03" transform="translate(2469.38 -183.68) rotate(67.43)"/><polygon class="cls-5" points="1486.82 1688.41 1504.79 1727.56 1533.03 1692.9 1486.82 1688.41"/><path class="cls-9" d="M1830.21,1827.2H662.64a1,1,0,0,1-1-1.07,582.36,582.36,0,0,1,119.93-316.06,590.27,590.27,0,0,1,136.53-128.71A584.74,584.74,0,0,1,1603.23,1402a590.71,590.71,0,0,1,120.26,124.56,584.53,584.53,0,0,1,107.71,299.58,1,1,0,0,1-1,1.07Zm-1166.49-2H1829.13a582.56,582.56,0,0,0-107.27-297.49c-68.41-95.65-162.42-167.74-271.87-208.49a585.93,585.93,0,0,0-358.92-15.67c-121.2,33.41-230.55,107.18-307.91,207.74A580.32,580.32,0,0,0,663.72,1825.2Z"/><polygon class="cls-5" points="249.84 1829.62 382.73 1325.7 828.79 1334.71 941.14 1829.45 648.27 1830 604.64 1660.51 568.16 1829.62 249.84 1829.62"/><path class="cls-10" d="M384.38,899.17c-90.06-21.57-343.33-93.71-375,14.18-26.17,89.24,223.77,148.33,311.82,175.55Z"/><path class="cls-10" d="M821.25,921.23c90.06-21.57,371.37-115.77,403-7.88,26.17,89.24-269.35,166.91-357.39,194.14C845.81,1044.24,842.3,984.48,821.25,921.23Z"/><path class="cls-11" d="M234.44,842.75s123.8-100.9,357.78-115.62c237.9-15,404.07,139.15,404.07,139.15L972.76,1106l-81.85-.37,18.79,442.12-606-23.91,29.07-423.74-71.82-10.28Z"/><path class="cls-10" d="M496.08,551.42c2.56-42.14,27.85-64.43,20-71.86-5.43-5.17-17.34.55-35.41,20.11h0c12-16.44,27.34-39.45,18.24-46.07-10.92-7.07-32.1,17.85-44.18,33.55,14.62-19,16.61-33.07,10.62-35.49-9.44-3.81-24.23,8-42.64,34.57h0c7.71-19.89,6.44-28.15.62-29-10.64-1.55-25.39,19.86-35.45,40.9-11.32,23.69-12,45.61-12,59.92h0C309.63,614.91,49.77,809.85,15.77,859c-26.13,37.76-19.49,86.75,17.72,113.67,33.23,24,60.74,35.26,58.7,36.14,79.51-23.3,87.36-36,119.83-59.7,11.72-8.55,26.43-34.22,18.79-41.08l29.58-27.56C375.29,762.13,459.08,680.38,484,654.12a66.85,66.85,0,0,0,11.3-15.25C510.37,610.44,493.83,588.57,496.08,551.42Z"/><path class="cls-10" d="M486.07,585c31-28,48.08-31.6,52.37-26.56,7.21,8.49-9.42,43.26-49.51,90C486.55,630.82,488.45,602.6,486.07,585Z"/><path class="cls-5" d="M260,883.2a1,1,0,0,1-.72-1.69c15.78-16.24,32-32.82,48.11-49.28a1,1,0,0,1,1.42,0,1,1,0,0,1,0,1.41c-16.15,16.46-32.33,33-48.1,49.27A1,1,0,0,1,260,883.2Z"/><path class="cls-5" d="M420.59,609.56a1,1,0,0,1-.74-.33,1,1,0,0,1,.07-1.41A52.64,52.64,0,0,0,435.68,582c4.58-17.7-1.71-32.5-4.62-38a1,1,0,1,1,1.77-.93c3,5.74,9.54,21.08,4.78,39.46a54.68,54.68,0,0,1-16.35,26.83A1,1,0,0,1,420.59,609.56Z"/><path class="cls-5" d="M500.1,619.13H500a1,1,0,0,1-.92-1.08c.67-9-.83-18-2.43-27.65-.75-4.57-1.54-9.3-2.15-14.3a1,1,0,0,1,.88-1.11,1,1,0,0,1,1.11.87c.6,5,1.38,9.66,2.14,14.21,1.61,9.72,3.13,18.91,2.44,28.13A1,1,0,0,1,500.1,619.13Z"/><path class="cls-5" d="M469.21,536.91h-.1a1,1,0,0,1-.9-1.09,83.44,83.44,0,0,1,12.05-35.51,1,1,0,0,1,1.37-.33,1,1,0,0,1,.33,1.38A81.47,81.47,0,0,0,470.2,536,1,1,0,0,1,469.21,536.91Z"/><path class="cls-5" d="M445.25,522h-.1a1,1,0,0,1-.9-1.1,83.44,83.44,0,0,1,12.05-35.51,1,1,0,0,1,1.7,1.05,81.58,81.58,0,0,0-11.76,34.66A1,1,0,0,1,445.25,522Z"/><path class="cls-5" d="M410.91,522.1h-.1a1,1,0,0,1-.89-1.09,83.58,83.58,0,0,1,12-35.51,1,1,0,1,1,1.7,1.05,81.61,81.61,0,0,0-11.75,34.66A1,1,0,0,1,410.91,522.1Z"/><path class="cls-10" d="M804.75,491.2c5.29-41.89-15.45-68.47-6.4-74.33,6.29-4.08,16.94,3.75,31.07,26.32h0c-8.77-18.38-19.58-43.82-9.4-48.64,12-4.93,28.24,23.47,37.21,41.14-10.85-21.38-10.23-36-3.88-37.28,10-2,22.25,14.9,35.49,41.42h0c-3.58-19.89-1.11-28.42,4.77-28.18,10.74.44,21.4,24.44,27.39,47,6.75,25.37,3,47.26.82,61.33h0c55.26,68.3,273.86,307.76,298.19,362.33,18.7,42,17.62,75.18-30.92,103.12-35.54,20.47-54.48,23.71-52.63,25-73.83-37.61-102.32-33.9-129.85-63.2-9.93-10.56-15.88-51.14-7.11-56.46l-24-32.56c-91-137.54-158.27-233.38-177.86-263.78a66.34,66.34,0,0,1-8.29-17.08C779.79,546.55,800.09,528.12,804.75,491.2Z"/><path class="cls-10" d="M808.38,526.06c-25.24-33.29-41.4-39.95-46.55-35.78-8.66,7,1.25,44.25,32,97.55C799.43,571,802.78,542.91,808.38,526.06Z"/><path class="cls-5" d="M975.55,860.93a1,1,0,0,1-.83-.45c-12.52-18.91-25.36-38.19-38.16-57.31a1,1,0,1,1,1.66-1.12c12.8,19.13,25.65,38.41,38.17,57.32a1,1,0,0,1-.29,1.39A1,1,0,0,1,975.55,860.93Z"/><path class="cls-5" d="M868.38,562.32a1,1,0,0,1-.8-.4,54.62,54.62,0,0,1-11.11-29.38c-1.28-18.94,8-32.82,12-37.9a1,1,0,0,1,1.4-.17,1,1,0,0,1,.17,1.41c-3.89,4.9-12.8,18.28-11.58,36.53a52.68,52.68,0,0,0,10.71,28.3,1,1,0,0,1-.19,1.4A1,1,0,0,1,868.38,562.32Z"/><path class="cls-5" d="M788.47,557h-.12a1,1,0,0,1-.88-1.11c1-9.19,4.22-17.93,7.6-27.19,1.59-4.33,3.22-8.81,4.73-13.57a1,1,0,0,1,1.91.6c-1.52,4.81-3.17,9.3-4.76,13.65-3.34,9.15-6.49,17.78-7.49,26.73A1,1,0,0,1,788.47,557Z"/><path class="cls-5" d="M834,481.92H834a1,1,0,0,1-.91-1.08,81.6,81.6,0,0,0-5.15-36.24,1,1,0,0,1,1.87-.72A83.6,83.6,0,0,1,835,481,1,1,0,0,1,834,481.92Z"/><path class="cls-5" d="M860.34,471.69h-.09a1,1,0,0,1-.91-1.08,81.76,81.76,0,0,0-5.14-36.24,1,1,0,0,1,.57-1.29,1,1,0,0,1,1.29.58,83.54,83.54,0,0,1,5.27,37.12A1,1,0,0,1,860.34,471.69Z"/><path class="cls-5" d="M894.06,478.15H894a1,1,0,0,1-.92-1.09,81.31,81.31,0,0,0-5.14-36.23,1,1,0,0,1,1.87-.72,83.54,83.54,0,0,1,5.27,37.12A1,1,0,0,1,894.06,478.15Z"/><path class="cls-10" d="M614.17,797.68h0a62.42,62.42,0,0,1-59.49-65.22l5.78-126.14L685.18,612l-5.79,126.14A62.43,62.43,0,0,1,614.17,797.68Z"/><rect class="cls-5" x="544.93" y="445.84" width="176.69" height="137.99" transform="translate(1215.49 1086.77) rotate(-174.62)"/><path class="cls-10" d="M718.32,559.68C716,608.56,687,684.73,623.86,681.76S539,600.22,541.29,551.34s44.19-73.82,93.08-71.52S720.62,510.79,718.32,559.68Z"/><path class="cls-10" d="M559.39,572.41c7.51,19.33,3.15,39.06-9.74,44.07s-29.42-6.61-36.93-25.94-3.14-39.06,9.74-44.07S551.88,553.08,559.39,572.41Z"/><path class="cls-10" d="M697.87,578.94c-9.29,18.54-6.8,38.59,5.56,44.78s29.91-3.81,39.2-22.35,6.81-38.59-5.55-44.79S707.17,560.4,697.87,578.94Z"/><path class="cls-5" d="M722.37,608.19a1,1,0,0,1-.5-1.87,25,25,0,0,0,9.53-10.58c4.74-9.47,3.6-19.67-2.54-22.75a8.16,8.16,0,0,0-1.85-.66,1,1,0,0,1-.75-1.2,1,1,0,0,1,1.2-.75,10.43,10.43,0,0,1,2.29.82c7.13,3.57,8.67,15,3.44,25.43a27.06,27.06,0,0,1-10.33,11.43A1,1,0,0,1,722.37,608.19Z"/><path class="cls-5" d="M533.14,599.27a1,1,0,0,1-.57-.18,27.05,27.05,0,0,1-9.21-12.34c-4.23-10.9-1.62-22.11,5.82-25a10,10,0,0,1,2.36-.6,1,1,0,1,1,.26,2,8.3,8.3,0,0,0-1.9.49c-6.41,2.48-8.5,12.54-4.67,22.41a25,25,0,0,0,8.49,11.43,1,1,0,0,1-.58,1.81Z"/><path class="cls-5" d="M708.16,611.08a1,1,0,0,1-.33-.06,1,1,0,0,1-.61-1.27A183.94,183.94,0,0,0,716.58,569a1,1,0,1,1,2,.21,185.85,185.85,0,0,1-9.47,41.18A1,1,0,0,1,708.16,611.08Z"/><path class="cls-5" d="M547.91,608.17a1,1,0,0,1-1-.72,185.85,185.85,0,0,1-6.82-50.31,1,1,0,0,1,1-1,1,1,0,0,1,1,1,183.63,183.63,0,0,0,6.75,49.74,1,1,0,0,1-.69,1.24A1.33,1.33,0,0,1,547.91,608.17Z"/><path class="cls-5" d="M626.88,684.38c-1.1,0-2.22,0-3.34-.1-24.31-1.48-42.92-18.56-56.41-33.28a1,1,0,0,1,.06-1.41,1,1,0,0,1,1.41.06c14.07,15.34,31.61,31.21,55.06,32.63s43.15-13.14,57.62-26a1,1,0,1,1,1.33,1.49C668.53,670.28,649.63,684.38,626.88,684.38Z"/><path class="cls-4" d="M709.72,560.85a67.6,67.6,0,0,1-12.05,13c-5.13,4.28-15.08-1.29-22.9.92-9.78,2.76-16.27,11.66-23.65,10.06a65,65,0,0,1-12.39-3.92,61.85,61.85,0,0,1,6.84-8.16c5.45-5.58,14.47-2.61,25.3-5.67,9.12-2.57,17.77-11.84,25-10.45A66,66,0,0,1,709.72,560.85Z"/><path class="cls-5" d="M670.36,557.19c-10.84,3.06-19.34,10-24.8,15.56a26.78,26.78,0,0,0,5.51,12.06c7.39,1.6,17.23,2.52,27-.25a53.91,53.91,0,0,0,19.67-10.81,26.54,26.54,0,0,0-2-17.12C688.62,555.24,679.49,554.61,670.36,557.19Z"/><path class="cls-4" d="M547.73,553.22a68.66,68.66,0,0,0,12.67,15.9c4.43,4.12,14-.48,20.65,2.08,8.8,3.4,13.87,12.27,21.14,11.57a65.81,65.81,0,0,0,14.34-2.92,61.88,61.88,0,0,0-5.68-8.32c-4.88-6.13-17.63-1.57-28.38-5.73-8.87-3.44-13.28-16.2-20.57-15.48A65.69,65.69,0,0,0,547.73,553.22Z"/><path class="cls-5" d="M610.71,571.36c-4.89-6.1-12.79-14-23.45-18.09-8.89-3.44-18.09-3.66-25.39-2.93a26.42,26.42,0,0,0-2.14,16.79c.12.6.28,1.17.44,1.74A52.29,52.29,0,0,0,577,579.79c8.89,3.45,18.09,3.67,25.4,2.94A26.7,26.7,0,0,0,610.71,571.36Z"/><path class="cls-5" d="M628.77,616.58a1,1,0,0,1-.43-1.9c3.93-1.87,6.16-4,6.64-6.4.39-1.92-.45-3.5-1.62-5.7a29.44,29.44,0,0,1-2.71-6.41,25.47,25.47,0,0,1-.06-12.52,1,1,0,0,1,1.2-.75,1,1,0,0,1,.75,1.21,23.4,23.4,0,0,0,0,11.53,28,28,0,0,0,2.55,6c1.26,2.37,2.34,4.41,1.81,7-.61,3-3.21,5.65-7.74,7.8A.91.91,0,0,1,628.77,616.58Z"/><path class="cls-5" d="M624.29,641.07a1,1,0,0,1-.84-.46,12.87,12.87,0,0,0-6.24-4.94A14.4,14.4,0,0,0,604.13,637a1,1,0,0,1-1.15-1.64,16.44,16.44,0,0,1,14.95-1.56,14.88,14.88,0,0,1,7.2,5.73,1,1,0,0,1-.84,1.54Z"/><path class="cls-5" d="M693,478.34a26.09,26.09,0,0,0,33.8,14.8c13.42-5.24,40.77-20.4,35.53-33.82s-41.1-20-54.53-14.78A26.09,26.09,0,0,0,693,478.34Z"/><path class="cls-5" d="M504.94,483.66c6.4,16.39,47.66,15,64,8.57a31.86,31.86,0,0,0-23.19-59.35C529.4,439.29,498.53,467.27,504.94,483.66Z"/><path class="cls-5" d="M673.79,448.16a31.86,31.86,0,0,0,41.27,18.08c16.39-6.41,43.75-44.31,32.88-56.91-11.49-13.33-39.69-8.85-56.07-2.44A31.85,31.85,0,0,0,673.79,448.16Z"/><path class="cls-5" d="M564,438.55a20.08,20.08,0,1,0,37.41-14.62c-4-10.33-23.51-25.16-33.84-21.12S559.92,428.22,564,438.55Z"/><path class="cls-5" d="M593,445.54a31.86,31.86,0,0,0,59.35-23.19c-6.4-16.39-39.73-63.77-56.12-57.36S586.59,429.16,593,445.54Z"/><path class="cls-5" d="M597.09,504.09c6.41,16.39,42.75,12.43,59.14,6A31.86,31.86,0,0,0,633,450.77C616.65,457.17,590.69,487.71,597.09,504.09Z"/><path class="cls-5" d="M635.15,431.92a31.86,31.86,0,0,0,59.35-23.2c-6.4-16.38-32.33-38.84-48.72-32.43S628.75,415.53,635.15,431.92Z"/><path class="cls-5" d="M673.72,485.93a20.08,20.08,0,0,0-11.4,26c4,10.34,19.65,25.32,30,21.28s11.47-25.56,7.43-35.9A20.07,20.07,0,0,0,673.72,485.93Z"/></g></g></g></svg>