<svg width="1058" height="1053" viewBox="0 0 1058 1053" fill="none" xmlns="http://www.w3.org/2000/svg">
<path d="M922.645 901.012C901.216 923.572 880.939 938.121 864.919 949.616C676.604 1084.73 453.778 1045.35 406.422 1035.73C336.49 1021.53 201.315 994.071 103.586 879.143C-44.2706 705.267 -21.2471 431.331 93.4399 250.501C114.418 217.424 225.231 33.8402 450.457 4.3993C586.761 -13.418 745.648 22.5174 860.71 118.916C1102.23 321.266 1085.04 730.048 922.645 901.012Z" fill="url(#paint0_linear_232_1767)"/>
<path d="M553.45 6.71694C551.323 2.95908 556.215 -1.38159 560.515 0.421005C604.172 18.7252 714.017 79.6439 736.655 235.589C765.057 431.247 830.427 486.565 899.076 511.898C899.076 511.898 815.836 514.877 746.749 459.55C577.124 323.711 591.27 73.5326 553.45 6.71694Z" fill="#91B3FA"/>
<path d="M597.462 57.5584C607.991 77.1869 618.059 97.0196 627.26 117.208C636.583 137.341 645.188 157.765 653.036 178.447C660.79 199.161 668.092 220.031 674.351 241.216C680.721 262.367 686.031 283.809 691.275 305.359C696.655 326.861 701.934 348.56 709.792 369.669C717.612 390.742 728.486 411.126 743.423 428.849C747.152 433.264 750.992 437.63 755.105 441.73C759.126 445.907 763.373 449.912 767.705 453.842C776.419 461.662 785.784 468.942 795.773 475.53C815.798 488.66 838.319 498.918 861.97 506.257C864.46 507.029 867.348 505.816 868.423 503.548C869.477 501.32 868.39 498.903 865.993 498.085L865.976 498.079C860.294 496.146 854.649 494.156 849.144 491.942C846.367 490.875 843.66 489.698 840.924 488.568C838.249 487.344 835.511 486.216 832.888 484.917C822.286 479.887 812.156 474.175 802.615 467.794C783.476 455.135 766.612 439.723 752.307 422.816C745.268 414.281 738.995 405.252 733.571 395.77C728.155 386.283 723.59 376.355 719.687 366.143C711.873 345.708 706.443 324.284 700.885 302.829C695.294 281.378 689.505 259.868 682.701 238.673C679.332 228.066 675.744 217.529 671.937 207.07C670.069 201.828 668.084 196.628 666.109 191.425C664.076 186.242 662.011 181.072 659.896 175.921C651.393 155.335 642.16 135.038 632.19 115.08C622.107 95.1711 611.407 75.5486 599.834 56.3841C599.503 55.8362 598.71 55.6651 598.062 56.002C597.433 56.3288 597.174 57.0173 597.462 57.5584Z" fill="white"/>
<path d="M776.326 429.771C773.34 435.627 765.344 436.531 761.062 431.545C737.43 404.032 677.649 320.2 699.907 196.989C718.702 92.9424 719.007 34.7378 717.314 8.30578C716.956 2.71638 723.941 -0.0811373 727.549 4.20313C767.349 51.4711 884.508 217.576 776.326 429.771Z" fill="#BDD0FB"/>
<path d="M767.487 428.723C767.341 428.795 767.186 428.855 767.023 428.899C765.657 429.276 764.244 428.474 763.867 427.108C763.44 425.558 721.394 270.545 740.993 124.695C741.182 123.291 742.473 122.305 743.879 122.493C745.283 122.682 746.269 123.973 746.08 125.378C726.624 270.167 768.391 424.205 768.815 425.743C769.147 426.947 768.564 428.186 767.487 428.723Z" fill="white"/>
<path d="M993.363 1044.38H678.264V460.024C678.264 431.376 701.487 408.152 730.135 408.152H941.492C970.139 408.152 993.363 431.376 993.363 460.024V1044.38Z" fill="#7D97F4"/>
<path d="M900.471 1044.38H585.371V423.353C585.371 414.958 592.177 408.153 600.571 408.153H885.271C893.666 408.153 900.471 414.958 900.471 423.353V1044.38Z" fill="#91B3FA"/>
<path d="M611.382 524.14C610.319 524.14 609.457 523.279 609.457 522.215V473.921C609.457 448.422 632.796 427.677 661.483 427.677H744.336C745.399 427.677 746.261 428.539 746.261 429.602C746.261 430.665 745.399 431.527 744.336 431.527H661.483C634.919 431.527 613.307 450.545 613.307 473.921V522.215C613.307 523.279 612.444 524.14 611.382 524.14Z" fill="#BDD0FB"/>
<path d="M611.382 575.347C610.319 575.347 609.457 574.486 609.457 573.423V553.747C609.457 552.684 610.319 551.822 611.382 551.822C612.444 551.822 613.307 552.684 613.307 553.747V573.423C613.307 574.486 612.444 575.347 611.382 575.347Z" fill="white"/>
<path d="M687.981 1044.38H368.024V554.766C368.024 546.371 374.83 539.566 383.224 539.566H672.781C681.176 539.566 687.981 546.372 687.981 554.766L687.981 1044.38Z" fill="url(#paint1_linear_232_1767)"/>
<path d="M606.704 1044.38H286.747V554.766C286.747 546.371 293.552 539.566 301.947 539.566H591.504C599.899 539.566 606.704 546.372 606.704 554.766L606.704 1044.38Z" fill="url(#paint2_linear_232_1767)"/>
<g opacity="0.68">
<path d="M308.199 634.02C307.137 634.02 306.274 633.158 306.274 632.095V596.279C306.274 577.095 323.806 561.487 345.355 561.487H406.799C407.861 561.487 408.723 562.349 408.723 563.412C408.723 564.475 407.861 565.337 406.799 565.337H345.355C325.928 565.337 310.124 579.218 310.124 596.279V632.095C310.124 633.158 309.262 634.02 308.199 634.02Z" fill="white"/>
<path d="M308.199 671.996C307.137 671.996 306.274 671.134 306.274 670.071V655.479C306.274 654.416 307.137 653.554 308.199 653.554C309.262 653.554 310.124 654.416 310.124 655.479V670.071C310.124 671.134 309.262 671.996 308.199 671.996Z" fill="white"/>
</g>
<path d="M363.171 1044.38H87.4717V739.7C87.4717 711.052 110.695 687.829 139.343 687.829H311.3C339.947 687.829 363.171 711.052 363.171 739.7V1044.38Z" fill="#7D97F4"/>
<path d="M281.894 1044.38H6.19434V703.028C6.19434 694.634 12.9997 687.829 21.3942 687.829H266.694C275.089 687.829 281.894 694.634 281.894 703.028V1044.38Z" fill="#91B3FA"/>
<path d="M28.9531 789.554C27.8905 789.554 27.0283 788.693 27.0283 787.629V745.373C27.0283 722.93 47.5566 704.671 72.7892 704.671H145.283C146.345 704.671 147.207 705.533 147.207 706.596C147.207 707.66 146.345 708.521 145.283 708.521H72.7892C49.6796 708.521 30.8779 725.053 30.8779 745.373V787.629C30.8776 788.693 30.0157 789.554 28.9531 789.554Z" fill="#BDD0FB"/>
<path d="M28.9531 834.359C27.8905 834.359 27.0283 833.497 27.0283 832.434V815.218C27.0283 814.155 27.8905 813.293 28.9531 813.293C30.0157 813.293 30.8779 814.155 30.8779 815.218V832.434C30.8776 833.497 30.0157 834.359 28.9531 834.359Z" fill="#BDD0FB"/>
<path d="M369.374 267.612L344.733 305.519C356.196 327.85 368.927 340.178 381.665 346.038C383.939 332.125 392.065 320.577 398.03 313.717C375.308 300.793 369.374 267.612 369.374 267.612Z" fill="url(#paint3_linear_232_1767)"/>
<path d="M454.033 306.913C428.806 321.844 410.777 320.968 398.031 313.718C392.066 320.577 383.941 332.126 381.666 346.038C422.157 364.668 462.705 317.777 462.705 317.777L454.033 306.913Z" fill="url(#paint4_linear_232_1767)"/>
<path d="M455.406 313.406C455.406 313.406 448.596 301.533 458.39 292.416C458.39 292.416 461.547 288.814 465.015 294.106C465.015 294.106 475.551 284.541 478.432 288.394C481.314 292.247 488.951 301.787 481.492 312.669C473.949 323.673 458.733 318.768 455.406 313.406Z" fill="url(#paint5_linear_232_1767)"/>
<path d="M465.759 306.847C464.746 306.847 463.66 306.659 462.698 306.089C461.758 305.533 460.575 304.372 460.273 302.003C460.184 301.299 460.681 300.657 461.384 300.567C462.095 300.479 462.73 300.975 462.819 301.678C462.958 302.77 463.346 303.491 464.005 303.881C464.908 304.416 466.257 304.315 467.264 304.104L464.895 296.59C464.682 295.914 465.057 295.193 465.733 294.98C466.414 294.766 467.13 295.142 467.343 295.818L470.108 304.585C470.309 305.229 469.98 305.919 469.353 306.165C469.096 306.266 467.541 306.847 465.759 306.847Z" fill="#F79E6D"/>
<path d="M96.989 561.489C94.7964 562.809 93.6759 565.588 94.1982 568.311C96.2546 579.03 103.015 607.341 119.437 624.102C120.522 625.208 122.099 625.11 123.053 624.112C118.895 619.78 113.738 612.375 107.712 599.799C98.4483 580.471 96.7325 568.55 96.989 561.489Z" fill="url(#paint6_linear_232_1767)"/>
<path d="M118.193 561.088C118.193 561.088 107.605 555.329 97.0622 561.437C97.0359 561.452 97.0141 561.473 96.9885 561.489C96.7321 568.55 98.4478 580.471 107.711 599.799C113.738 612.375 118.894 619.78 123.052 624.112C123.354 623.797 123.597 623.396 123.737 622.908C126.822 612.192 133.335 582.417 118.193 561.088Z" fill="url(#paint7_linear_232_1767)"/>
<path d="M133.487 561.755L123.892 570.961C122.195 572.589 119.592 572.852 117.633 571.551C115.923 570.417 114.021 568.556 112.754 565.54C111.994 563.731 112.359 561.637 113.679 560.185L123.258 549.648C125.545 547.133 129.613 547.549 131.342 550.475L134.338 555.541C135.531 557.558 135.178 560.132 133.487 561.755Z" fill="url(#paint8_linear_232_1767)"/>
<path d="M443.61 515.577C445.841 516.831 448.811 516.431 450.921 514.631C459.222 507.546 480.493 487.676 486.947 465.117C487.373 463.627 486.508 462.304 485.169 461.968C483.458 467.724 479.569 475.866 471.615 487.321C459.39 504.926 449.875 512.31 443.61 515.577Z" fill="url(#paint9_linear_232_1767)"/>
<path d="M432.782 497.341C432.782 497.341 433.008 509.392 443.529 515.538C443.556 515.554 443.585 515.562 443.611 515.577C449.876 512.31 459.391 504.926 471.615 487.32C479.57 475.866 483.458 467.724 485.169 461.968C484.746 461.861 484.277 461.848 483.784 461.967C472.943 464.582 443.84 473.636 432.782 497.341Z" fill="url(#paint10_linear_232_1767)"/>
<path d="M432.039 477.385L442.065 486.12C443.839 487.664 444.333 490.233 443.212 492.301C442.235 494.105 440.552 496.167 437.661 497.697C435.927 498.616 433.809 498.44 432.245 497.255L420.894 488.655C418.185 486.603 418.236 482.514 420.995 480.53L425.773 477.094C427.677 475.725 430.272 475.845 432.039 477.385Z" fill="url(#paint11_linear_232_1767)"/>
<path d="M230.878 388.984C230.878 388.984 211.314 455.633 198.665 484.927C198.665 484.927 176.555 488.3 162.87 496.296C149.185 504.292 119.708 548.61 119.708 548.61C119.708 548.61 127.406 563.223 136.694 565.465L220.608 507.323L287.578 429.442L284.399 393.319L230.878 388.984Z" fill="url(#paint12_linear_232_1767)"/>
<path d="M232.083 383.547L226.358 401.798C226.358 401.798 231.595 449.648 291.918 441.579C352.242 433.51 359.823 423.662 359.823 423.662C359.823 423.662 354.587 454.222 420.548 490.966C420.548 490.966 430.575 483.397 432.782 474.802L386.557 398.615C380.127 388.622 374.165 385.989 362.424 387.826C336.465 391.885 287.856 397.177 280.499 395.921L232.083 383.547Z" fill="url(#paint13_linear_232_1767)"/>
<path d="M279.197 247.829C261.618 248.723 233.83 257.08 215.88 273.605C221.397 279.695 229.887 289.598 236.215 299.38C241.869 294.071 249.989 289.649 261.422 286.817C251.54 323.75 239.86 358.937 225.626 391.645C224.735 393.692 225.75 396.06 227.858 396.795C238.872 400.632 271.352 409.774 297.404 395.052L355.16 312.352C361.372 303.458 365.455 293.254 367.094 282.53L369.375 267.612C369.375 267.612 317.503 245.881 279.197 247.829Z" fill="url(#paint14_linear_232_1767)"/>
<path d="M247.697 372.978C245.187 367.435 236.593 362.256 232.492 360.031C228.923 352.675 214.68 319.595 236.214 299.38C229.886 289.598 221.396 279.695 215.879 273.605C195.168 292.671 187.587 322.623 223.905 364.56C221.922 374.889 228.39 386.916 231.888 388.602C233.499 389.379 251.033 380.344 247.697 372.978Z" fill="url(#paint15_linear_232_1767)"/>
<path d="M318.21 225.863L303.121 255.397C302.201 257.199 302.474 259.377 303.826 260.882C307.48 264.952 316.11 271.562 331.12 266.825C332.775 266.302 333.966 264.848 334.218 263.13L338.148 236.307L318.21 225.863Z" fill="url(#paint16_linear_232_1767)"/>
<path d="M343.365 191.567C343.365 191.567 352.215 211.898 352.81 222.569C353.404 233.24 355.704 240.164 343.365 242.312C331.027 244.461 320.633 238.315 315.002 227.685C315.002 227.685 306.179 211.307 308.159 204.599C310.137 197.891 343.365 191.567 343.365 191.567Z" fill="url(#paint17_linear_232_1767)"/>
<path d="M319.219 220.043L319.921 219.734C320.815 219.34 321.197 218.275 320.749 217.407C319.009 214.045 315.617 206.342 319.999 204.545C325.646 202.229 348.014 197.667 352.84 189.731C357.478 182.102 353.369 172.256 347.192 169.455C346.779 169.268 346.292 169.416 346.08 169.817L345.565 170.791C345.213 171.458 344.228 171.357 344.018 170.633C343.817 169.937 342.892 169.802 342.509 170.416C341.025 172.791 337.02 176.64 326.31 178.617C311.088 181.426 301.025 187.586 300.774 198.104C300.759 198.773 300.048 199.144 299.477 198.796C298.353 198.111 296.554 197.79 294.151 199.811C289.971 203.326 291.681 212.444 300.845 219.944C301.281 220.3 301.277 220.98 300.806 221.287C299.144 222.368 296.668 224.941 303.085 228.372C309.722 231.92 314.679 231.629 316.588 231.314C317.062 231.235 317.369 230.776 317.265 230.306L315.228 221.061C315.112 220.538 315.511 220.042 316.047 220.042H319.219V220.043Z" fill="url(#paint18_linear_232_1767)"/>
<path d="M319.602 221.994C319.602 221.994 316.225 209.007 310.403 212.648C304.58 216.289 313.424 227.199 318.105 227.686L319.602 221.994Z" fill="url(#paint19_linear_232_1767)"/>
<path d="M819.066 384.085H799.17L767.894 292.082L854.833 286.802L819.066 384.085Z" fill="url(#paint20_linear_232_1767)"/>
<path d="M714.973 121.149C714.875 128.915 714.875 280.954 792.056 305.643C869.237 330.334 904.099 201.693 901.333 110.076L714.973 121.149Z" fill="url(#paint21_linear_232_1767)"/>
<path d="M870.814 398.042H747.423V413.023H870.814V398.042Z" fill="url(#paint22_linear_232_1767)"/>
<path d="M870.814 398.042H747.423L778.651 381.289H839.586L870.814 398.042Z" fill="url(#paint23_linear_232_1767)"/>
<path d="M706.028 99.5767C699.253 99.9888 693.711 105.004 693.711 110.723V122.417C693.711 128.135 699.257 132.514 706.035 132.15L917.56 120.769C924.339 120.404 929.885 115.428 929.885 109.71V96.3528C929.885 90.6344 924.342 86.2934 917.568 86.7058L706.028 99.5767Z" fill="url(#paint24_linear_232_1767)"/>
<path d="M846.713 317.727C841.783 317.727 837.53 314.613 836.957 310.39C836.341 305.85 840.212 301.749 845.603 301.228C846.63 301.125 917.612 293.63 924.341 254.779C925.477 248.229 925.351 239.671 918.307 236.1C912.493 233.152 902.974 234.089 896.169 238.279C892.299 240.662 888.065 244.835 889.866 251.187C891.127 255.633 887.867 260.097 882.585 261.159C877.305 262.219 872 259.476 870.74 255.03C867.475 243.514 872.641 232.257 884.56 224.919C897.801 216.764 915.85 215.532 928.451 221.92C935.817 225.654 947.605 235.198 943.799 257.168C940.036 278.89 921.897 296.291 891.344 307.489C869.404 315.53 848.711 317.59 847.841 317.673C847.462 317.71 847.086 317.727 846.713 317.727Z" fill="url(#paint25_linear_232_1767)"/>
<path d="M773.092 317.727C778.022 317.727 782.274 314.613 782.847 310.39C783.463 305.85 779.592 301.749 774.201 301.228C773.174 301.125 702.192 293.63 695.462 254.779C694.327 248.229 694.453 239.671 701.497 236.1C707.311 233.152 716.829 234.089 723.635 238.279C727.504 240.662 731.739 244.835 729.938 251.187C728.677 255.633 731.936 260.097 737.218 261.159C742.498 262.219 747.803 259.476 749.064 255.03C752.329 243.514 747.162 232.257 735.244 224.919C722.002 216.764 703.954 215.532 691.352 221.92C683.987 225.654 672.199 235.198 676.005 257.168C679.767 278.89 697.907 296.291 728.46 307.489C750.399 315.53 771.093 317.59 771.963 317.673C772.342 317.71 772.719 317.727 773.092 317.727Z" fill="url(#paint26_linear_232_1767)"/>
<path opacity="0.68" d="M859.464 109.207C858.617 109.207 857.907 108.543 857.861 107.685C857.813 106.799 858.493 106.042 859.379 105.994L878.27 104.978C879.159 104.944 879.913 105.61 879.961 106.497C880.009 107.383 879.329 108.14 878.442 108.188L859.552 109.204C859.523 109.206 859.494 109.207 859.464 109.207Z" fill="white"/>
<path opacity="0.68" d="M714.965 116.982C714.117 116.982 713.407 116.318 713.361 115.46C713.313 114.574 713.993 113.816 714.879 113.769L827.733 107.697C828.615 107.645 829.376 108.33 829.424 109.216C829.472 110.102 828.792 110.859 827.905 110.907L715.052 116.979C715.024 116.981 714.993 116.982 714.965 116.982Z" fill="white"/>
<path opacity="0.68" d="M802.349 288.408C802.287 288.408 802.225 288.405 802.163 288.398C781.727 286.048 765.39 269.407 753.607 238.938C743.876 213.777 739.283 184.333 737.145 164.063C737.052 163.18 737.692 162.389 738.575 162.296C739.46 162.211 740.249 162.843 740.343 163.726C744.015 198.522 757.424 280.016 802.531 285.203C803.413 285.305 804.046 286.102 803.944 286.985C803.849 287.804 803.155 288.408 802.349 288.408Z" fill="white"/>
<path opacity="0.68" d="M737.378 149.603C736.538 149.603 735.831 148.95 735.776 148.1C735.474 143.461 735.393 140.792 735.39 140.68C735.364 139.793 736.062 139.052 736.949 139.026C737.901 138.967 738.578 139.697 738.604 140.584C738.605 140.611 738.687 143.315 738.985 147.891C739.042 148.778 738.37 149.542 737.485 149.6C737.449 149.603 737.414 149.603 737.378 149.603Z" fill="white"/>
<path d="M702.895 1037.98L1031.03 1037.98V972.304L702.895 972.304C709.918 972.304 709.918 1037.98 702.895 1037.98Z" fill="#BDD0FB"/>
<path d="M1031.03 1021.54V991.489C1031.03 980.893 1024.55 972.304 1016.55 972.304H704.278C697.988 972.304 692.888 967.205 692.888 960.914C692.888 959.003 694.437 957.453 696.349 957.453H1037.63C1045.46 957.453 1057.89 969.759 1057.89 984.938V1026.92C1057.89 1041.23 1045.82 1052.83 1038.44 1052.83H698.144C695.241 1052.83 692.888 1050.48 692.888 1047.57C692.888 1042.27 697.183 1037.98 702.482 1037.98H1018.62C1025.47 1037.98 1031.03 1030.62 1031.03 1021.54Z" fill="url(#paint27_linear_232_1767)"/>
<path d="M1021.93 987.063H714.257C713.548 987.063 712.974 986.488 712.974 985.779C712.974 985.071 713.547 984.496 714.257 984.496H1021.93C1022.64 984.496 1023.21 985.071 1023.21 985.779C1023.21 986.488 1022.64 987.063 1021.93 987.063Z" fill="url(#paint28_linear_232_1767)"/>
<path d="M1021.93 996.81H714.257C713.548 996.81 712.974 996.236 712.974 995.527C712.974 994.818 713.547 994.244 714.257 994.244H1021.93C1022.64 994.244 1023.21 994.818 1023.21 995.527C1023.21 996.236 1022.64 996.81 1021.93 996.81Z" fill="url(#paint29_linear_232_1767)"/>
<path d="M1021.93 1006.56H714.257C713.548 1006.56 712.974 1005.98 712.974 1005.28C712.974 1004.57 713.547 1003.99 714.257 1003.99H1021.93C1022.64 1003.99 1023.21 1004.57 1023.21 1005.28C1023.21 1005.98 1022.64 1006.56 1021.93 1006.56Z" fill="url(#paint30_linear_232_1767)"/>
<path d="M1021.93 1016.31H714.257C713.548 1016.31 712.974 1015.73 712.974 1015.02C712.974 1014.32 713.547 1013.74 714.257 1013.74H1021.93C1022.64 1013.74 1023.21 1014.32 1023.21 1015.02C1023.21 1015.73 1022.64 1016.31 1021.93 1016.31Z" fill="url(#paint31_linear_232_1767)"/>
<path d="M1021.93 1026.06H714.257C713.548 1026.06 712.974 1025.48 712.974 1024.77C712.974 1024.06 713.547 1023.49 714.257 1023.49H1021.93C1022.64 1023.49 1023.21 1024.06 1023.21 1024.77C1023.21 1025.48 1022.64 1026.06 1021.93 1026.06Z" fill="url(#paint32_linear_232_1767)"/>
<path d="M740.286 957.155H1025.58C1028.33 957.155 1030.56 954.926 1030.56 952.175V890.864C1030.56 888.114 1028.33 885.884 1025.58 885.884H740.286C737.535 885.884 735.306 888.114 735.306 890.864V952.175C735.306 954.926 737.535 957.155 740.286 957.155Z" fill="url(#paint33_linear_232_1767)"/>
<path d="M965.233 948.964H994.473C995.977 948.964 997.196 947.745 997.196 946.241V896.798C997.196 895.294 995.977 894.075 994.473 894.075H965.233C963.729 894.075 962.51 895.294 962.51 896.798V946.241C962.51 947.745 963.729 948.964 965.233 948.964Z" fill="url(#paint34_linear_232_1767)"/>
<path d="M945.773 948.964H956.029C956.791 948.964 957.408 948.346 957.408 947.585V895.455C957.408 894.693 956.79 894.075 956.028 894.075H945.773C945.011 894.075 944.394 894.693 944.394 895.455V947.585C944.393 948.346 945.011 948.964 945.773 948.964Z" fill="url(#paint35_linear_232_1767)"/>
<path d="M27.4922 1045.73C27.4922 1045.73 586.618 936.048 936.672 431.657L896.115 417.618C884.902 413.737 882.513 398.939 891.935 391.726L1020.67 293.17C1030.44 285.691 1044.51 292.921 1044.12 305.218L1038.89 469.351C1038.54 480.303 1025.87 486.189 1017.27 479.393L982.866 452.188C982.866 452.188 804.367 937.939 460.475 1045.73H27.4922Z" fill="url(#paint36_linear_232_1767)"/>
<defs>
<linearGradient id="paint0_linear_232_1767" x1="1179.31" y1="1357.95" x2="246.346" y2="199.272" gradientUnits="userSpaceOnUse">
<stop stop-color="#DAE3FE"/>
<stop offset="1" stop-color="#E9EFFD"/>
</linearGradient>
<linearGradient id="paint1_linear_232_1767" x1="310.195" y1="793.567" x2="937.063" y2="789.136" gradientUnits="userSpaceOnUse">
<stop stop-color="#FF928E"/>
<stop offset="1" stop-color="#FE7062"/>
</linearGradient>
<linearGradient id="paint2_linear_232_1767" x1="691.223" y1="423.915" x2="-93.112" y2="1621.73" gradientUnits="userSpaceOnUse">
<stop stop-color="#FF928E"/>
<stop offset="1" stop-color="#FE7062"/>
</linearGradient>
<linearGradient id="paint3_linear_232_1767" x1="559.837" y1="-77.7616" x2="467.449" y2="112.149" gradientUnits="userSpaceOnUse">
<stop stop-color="#4F52FF"/>
<stop offset="1" stop-color="#4042E2"/>
</linearGradient>
<linearGradient id="paint4_linear_232_1767" x1="472.475" y1="300.054" x2="287.353" y2="389.732" gradientUnits="userSpaceOnUse">
<stop stop-color="#FEBBBA"/>
<stop offset="1" stop-color="#FF928E"/>
</linearGradient>
<linearGradient id="paint5_linear_232_1767" x1="473.358" y1="301.876" x2="288.237" y2="391.554" gradientUnits="userSpaceOnUse">
<stop stop-color="#FEBBBA"/>
<stop offset="1" stop-color="#FF928E"/>
</linearGradient>
<linearGradient id="paint6_linear_232_1767" x1="94.0713" y1="593.193" x2="123.053" y2="593.193" gradientUnits="userSpaceOnUse">
<stop stop-color="#4F52FF"/>
<stop offset="1" stop-color="#4042E2"/>
</linearGradient>
<linearGradient id="paint7_linear_232_1767" x1="96.9648" y1="591.37" x2="127.805" y2="591.37" gradientUnits="userSpaceOnUse">
<stop stop-color="#09005D"/>
<stop offset="1" stop-color="#1A0F91"/>
</linearGradient>
<linearGradient id="paint8_linear_232_1767" x1="112.362" y1="560.186" x2="135.041" y2="560.186" gradientUnits="userSpaceOnUse">
<stop stop-color="#FEBBBA"/>
<stop offset="1" stop-color="#FF928E"/>
</linearGradient>
<linearGradient id="paint9_linear_232_1767" x1="443.61" y1="489.136" x2="487.056" y2="489.136" gradientUnits="userSpaceOnUse">
<stop stop-color="#4F52FF"/>
<stop offset="1" stop-color="#4042E2"/>
</linearGradient>
<linearGradient id="paint10_linear_232_1767" x1="432.782" y1="488.73" x2="485.169" y2="488.73" gradientUnits="userSpaceOnUse">
<stop stop-color="#09005D"/>
<stop offset="1" stop-color="#1A0F91"/>
</linearGradient>
<linearGradient id="paint11_linear_232_1767" x1="418.894" y1="487.212" x2="443.81" y2="487.212" gradientUnits="userSpaceOnUse">
<stop stop-color="#FEBBBA"/>
<stop offset="1" stop-color="#FF928E"/>
</linearGradient>
<linearGradient id="paint12_linear_232_1767" x1="265.061" y1="407.332" x2="-37.1122" y2="721.054" gradientUnits="userSpaceOnUse">
<stop stop-color="#09005D"/>
<stop offset="1" stop-color="#1A0F91"/>
</linearGradient>
<linearGradient id="paint13_linear_232_1767" x1="765.032" y1="215.462" x2="418.59" y2="390.607" gradientUnits="userSpaceOnUse">
<stop stop-color="#09005D"/>
<stop offset="1" stop-color="#1A0F91"/>
</linearGradient>
<linearGradient id="paint14_linear_232_1767" x1="484.252" y1="-114.534" x2="391.863" y2="75.3766" gradientUnits="userSpaceOnUse">
<stop stop-color="#4F52FF"/>
<stop offset="1" stop-color="#4042E2"/>
</linearGradient>
<linearGradient id="paint15_linear_232_1767" x1="242.734" y1="360.589" x2="132.558" y2="165.859" gradientUnits="userSpaceOnUse">
<stop stop-color="#FEBBBA"/>
<stop offset="1" stop-color="#FF928E"/>
</linearGradient>
<linearGradient id="paint16_linear_232_1767" x1="312.383" y1="277.252" x2="323.913" y2="244.37" gradientUnits="userSpaceOnUse">
<stop stop-color="#FEBBBA"/>
<stop offset="1" stop-color="#FF928E"/>
</linearGradient>
<linearGradient id="paint17_linear_232_1767" x1="345.22" y1="209.463" x2="294.626" y2="248.175" gradientUnits="userSpaceOnUse">
<stop stop-color="#FEBBBA"/>
<stop offset="1" stop-color="#FF928E"/>
</linearGradient>
<linearGradient id="paint18_linear_232_1767" x1="309.605" y1="178.811" x2="356.725" y2="239.479" gradientUnits="userSpaceOnUse">
<stop stop-color="#09005D"/>
<stop offset="1" stop-color="#1A0F91"/>
</linearGradient>
<linearGradient id="paint19_linear_232_1767" x1="338.945" y1="201.261" x2="288.351" y2="239.973" gradientUnits="userSpaceOnUse">
<stop stop-color="#FEBBBA"/>
<stop offset="1" stop-color="#FF928E"/>
</linearGradient>
<linearGradient id="paint20_linear_232_1767" x1="1054.96" y1="-242.271" x2="949.737" y2="-8.7319" gradientUnits="userSpaceOnUse">
<stop stop-color="#FF928E"/>
<stop offset="1" stop-color="#FE7062"/>
</linearGradient>
<linearGradient id="paint21_linear_232_1767" x1="767.56" y1="356.743" x2="808.622" y2="136.035" gradientUnits="userSpaceOnUse">
<stop stop-color="#FF928E"/>
<stop offset="1" stop-color="#FE7062"/>
</linearGradient>
<linearGradient id="paint22_linear_232_1767" x1="810.296" y1="386.255" x2="802.977" y2="506.091" gradientUnits="userSpaceOnUse">
<stop stop-color="#FF928E"/>
<stop offset="1" stop-color="#FE7062"/>
</linearGradient>
<linearGradient id="paint23_linear_232_1767" x1="1053.56" y1="48.4375" x2="832.85" y2="364.099" gradientUnits="userSpaceOnUse">
<stop stop-color="#FF928E"/>
<stop offset="1" stop-color="#FE7062"/>
</linearGradient>
<linearGradient id="paint24_linear_232_1767" x1="818.424" y1="44.8382" x2="856.919" y2="-334.982" gradientUnits="userSpaceOnUse">
<stop stop-color="#FF928E"/>
<stop offset="0.3458" stop-color="#FF867F"/>
<stop offset="1" stop-color="#FE7062"/>
</linearGradient>
<linearGradient id="paint25_linear_232_1767" x1="944.324" y1="206.444" x2="743.899" y2="457.232" gradientUnits="userSpaceOnUse">
<stop stop-color="#FF928E"/>
<stop offset="1" stop-color="#FE7062"/>
</linearGradient>
<linearGradient id="paint26_linear_232_1767" x1="675.481" y1="206.444" x2="875.905" y2="457.232" gradientUnits="userSpaceOnUse">
<stop stop-color="#FF928E"/>
<stop offset="1" stop-color="#FE7062"/>
</linearGradient>
<linearGradient id="paint27_linear_232_1767" x1="1014.95" y1="847.055" x2="749.122" y2="1135.8" gradientUnits="userSpaceOnUse">
<stop stop-color="#4F52FF"/>
<stop offset="1" stop-color="#4042E2"/>
</linearGradient>
<linearGradient id="paint28_linear_232_1767" x1="712.974" y1="985.779" x2="1023.21" y2="985.779" gradientUnits="userSpaceOnUse">
<stop stop-color="#DAE3FE"/>
<stop offset="1" stop-color="#E9EFFD"/>
</linearGradient>
<linearGradient id="paint29_linear_232_1767" x1="712.974" y1="995.527" x2="1023.21" y2="995.527" gradientUnits="userSpaceOnUse">
<stop stop-color="#DAE3FE"/>
<stop offset="1" stop-color="#E9EFFD"/>
</linearGradient>
<linearGradient id="paint30_linear_232_1767" x1="712.974" y1="1005.28" x2="1023.21" y2="1005.28" gradientUnits="userSpaceOnUse">
<stop stop-color="#DAE3FE"/>
<stop offset="1" stop-color="#E9EFFD"/>
</linearGradient>
<linearGradient id="paint31_linear_232_1767" x1="712.974" y1="1015.02" x2="1023.21" y2="1015.02" gradientUnits="userSpaceOnUse">
<stop stop-color="#DAE3FE"/>
<stop offset="1" stop-color="#E9EFFD"/>
</linearGradient>
<linearGradient id="paint32_linear_232_1767" x1="712.974" y1="1024.77" x2="1023.21" y2="1024.77" gradientUnits="userSpaceOnUse">
<stop stop-color="#DAE3FE"/>
<stop offset="1" stop-color="#E9EFFD"/>
</linearGradient>
<linearGradient id="paint33_linear_232_1767" x1="917.312" y1="825.266" x2="1138.06" y2="207.167" gradientUnits="userSpaceOnUse">
<stop stop-color="#FE7062"/>
<stop offset="1" stop-color="#FF928E"/>
</linearGradient>
<linearGradient id="paint34_linear_232_1767" x1="1154.8" y1="554.732" x2="754.757" y2="1393.44" gradientUnits="userSpaceOnUse">
<stop stop-color="#FF928E"/>
<stop offset="1" stop-color="#FE7062"/>
</linearGradient>
<linearGradient id="paint35_linear_232_1767" x1="1126.17" y1="554.065" x2="738.188" y2="1367.48" gradientUnits="userSpaceOnUse">
<stop stop-color="#FF928E"/>
<stop offset="1" stop-color="#FE7062"/>
</linearGradient>
<linearGradient id="paint36_linear_232_1767" x1="893.057" y1="463.176" x2="266.541" y2="1063.7" gradientUnits="userSpaceOnUse">
<stop stop-color="#4F52FF"/>
<stop offset="1" stop-color="#4042E2"/>
</linearGradient>
</defs>
</svg>
